<?xml version="1.0" encoding="utf-8"?>
<!-- Generator: Adobe Illustrator 25.4.1, SVG Export Plug-In . SVG Version: 6.00 Build 0)  -->
<svg version="1.1" id="레이어_1" xmlns="http://www.w3.org/2000/svg" xmlns:xlink="http://www.w3.org/1999/xlink" x="0px"
	 y="0px" viewBox="0 0 97.5 110.5" style="enable-background:new 0 0 97.5 110.5;" xml:space="preserve">
<style type="text/css">
	.st0{fill:#FFFFFF;}
</style>
<g id="레이어_2_00000051361706971561977530000017714271832594674621_">
	<g id="레이어_1-2">
		<path class="st0" d="M95.8,13.1c-1.1-1.1-2.6-1.7-4.2-1.8H55.3v4.9h36.3c0.1,0,0.3,0,0.4,0.1c0.3,0.1,0.5,0.3,0.6,0.6
			c0.1,0.1,0.1,0.3,0.1,0.4v75.9c0,0.1,0,0.3-0.1,0.4c-0.1,0.1-0.1,0.3-0.2,0.3c-0.1,0.1-0.2,0.2-0.3,0.2c-0.1,0.1-0.3,0.1-0.4,0.1
			H55.3v4.9h36.3c3.3,0,6-2.7,6-6V17.3C97.5,15.7,96.9,14.2,95.8,13.1z"/>
		<path class="st0" d="M86.7,25.1H67.2V30h19.5V25.1z"/>
		<path class="st0" d="M86.7,39H67.2v4.9h19.5V39z"/>
		<path class="st0" d="M86.7,52.8H67.2v4.9h19.5V52.8z"/>
		<path class="st0" d="M86.7,66.6H67.2v4.9h19.5V66.6z"/>
		<path class="st0" d="M86.7,80.4H67.2v4.9h19.5V80.4z"/>
		<path class="st0" d="M60.6,25.1h-5.3V30h5.3V25.1z"/>
		<path class="st0" d="M60.6,39h-5.3v4.9h5.3V39z"/>
		<path class="st0" d="M60.6,52.8h-5.3v4.9h5.3V52.8z"/>
		<path class="st0" d="M60.6,66.6h-5.3v4.9h5.3V66.6z"/>
		<path class="st0" d="M60.6,80.4h-5.3v4.9h5.3V80.4z"/>
		<path class="st0" d="M55.3,85.3V0L0,13.8v83l55.3,13.8V85.3z M39.2,75.9l-8.8-0.5l-5.3-11.2l-5,10.6l-8.3-0.5l9-19l-9-19.1
			l8.3-0.5l5,10.6l5.3-11.2l8.8-0.5l-9.8,20.6L39.2,75.9z"/>
	</g>
</g>
</svg>
