<svg width="18" height="23" viewBox="0 0 18 23" fill="none" xmlns="http://www.w3.org/2000/svg">
<path d="M14.9149 22.0655H3.0851C1.8632 22.0655 0.9 21.0964 0.9 19.9355V3.03075C0.901974 1.86791 1.86459 0.9 3.0851 0.9H14.9149C16.1368 0.9 17.1 1.86911 17.1 3.03004V19.9365C17.0983 21.0968 16.1361 22.0655 14.9149 22.0655Z" stroke="white" stroke-width="1.8"/>
<path d="M13.9978 7.13631H4.0411C3.8035 7.13631 3.64578 6.97859 3.64578 6.74099V4.13354C3.64578 3.89594 3.8035 3.73822 4.0411 3.73822H13.9978C14.2354 3.73822 14.3931 3.89594 14.3931 4.13354V6.74099C14.3931 6.97859 14.2354 7.13631 13.9978 7.13631ZM4.43642 6.34568H13.6045V4.52885H4.43642V6.34568Z" fill="white"/>
<path d="M6.52975 11.6794H4.0411C3.8035 11.6794 3.64578 11.5217 3.64578 11.2841V8.7954C3.64578 8.5578 3.8035 8.40009 4.0411 8.40009H6.52975C6.76735 8.40009 6.92507 8.5578 6.92507 8.7954V11.2841C6.92507 11.5217 6.72844 11.6794 6.52975 11.6794ZM4.43642 10.8908H6.13649V9.19072H4.43642V10.8908Z" fill="white"/>
<path d="M10.2453 11.6794H7.75463C7.51703 11.6794 7.35931 11.5217 7.35931 11.2841V8.7954C7.35931 8.5578 7.51703 8.40009 7.75463 8.40009H10.2433C10.4809 8.40009 10.6386 8.5578 10.6386 8.7954V11.2841C10.6407 11.5217 10.4809 11.6794 10.2453 11.6794ZM8.19091 10.8908H9.89098V9.19072H8.19091V10.8908Z" fill="white"/>
<path d="M13.9978 11.6794H11.5091C11.2715 11.6794 11.1138 11.5217 11.1138 11.2841V8.7954C11.1138 8.5578 11.2715 8.40009 11.5091 8.40009H13.9978C14.2354 8.40009 14.3931 8.5578 14.3931 8.7954V11.2841C14.3931 11.5217 14.2354 11.6794 13.9978 11.6794ZM11.9044 10.8908H13.6045V9.19072H11.9044V10.8908Z" fill="white"/>
<path d="M6.52975 15.356H4.0411C3.8035 15.356 3.64578 15.1983 3.64578 14.9607V12.47C3.64578 12.2324 3.8035 12.0747 4.0411 12.0747H6.52975C6.76735 12.0747 6.92507 12.2324 6.92507 12.47V14.9587C6.92507 15.1963 6.72844 15.356 6.52975 15.356ZM4.43642 14.5654H6.13649V12.8653H4.43642V14.5654Z" fill="white"/>
<path d="M10.2453 15.356H7.75463C7.51703 15.356 7.35931 15.1983 7.35931 14.9607V12.47C7.35931 12.2324 7.51703 12.0747 7.75463 12.0747H10.2433C10.4809 12.0747 10.6386 12.2324 10.6386 12.47V14.9587C10.6407 15.1963 10.4809 15.356 10.2453 15.356ZM8.19091 14.5654H9.89098V12.8653H8.19091V14.5654Z" fill="white"/>
<path d="M13.9978 15.356H11.5091C11.2715 15.356 11.1138 15.1983 11.1138 14.9607V12.47C11.1138 12.2324 11.2715 12.0747 11.5091 12.0747H13.9978C14.2354 12.0747 14.3931 12.2324 14.3931 12.47V14.9587C14.3931 15.1963 14.2354 15.356 13.9978 15.356ZM11.9044 14.5654H13.6045V12.8653H11.9044V14.5654Z" fill="white"/>
<path d="M6.52975 19.0307H4.0411C3.8035 19.0307 3.64578 18.8729 3.64578 18.6353V16.1446C3.64578 15.907 3.8035 15.7493 4.0411 15.7493H6.52975C6.76735 15.7493 6.92507 15.907 6.92507 16.1446V18.6333C6.92507 18.832 6.72844 19.0307 6.52975 19.0307ZM4.43642 18.24H6.13649V16.54H4.43642V18.24Z" fill="white"/>
<path d="M10.2453 19.0307H7.75463C7.51703 19.0307 7.35931 18.8729 7.35931 18.6353V16.1446C7.35931 15.907 7.51703 15.7493 7.75463 15.7493H10.2433C10.4809 15.7493 10.6386 15.907 10.6386 16.1446V18.6333C10.6407 18.832 10.4809 19.0307 10.2453 19.0307ZM8.19091 18.24H9.89098V16.54H8.19091V18.24Z" fill="white"/>
<path d="M13.9978 19.0307H11.5091C11.2715 19.0307 11.1138 18.8729 11.1138 18.6353V16.1446C11.1138 15.907 11.2715 15.7493 11.5091 15.7493H13.9978C14.2354 15.7493 14.3931 15.907 14.3931 16.1446V18.6333C14.3931 18.832 14.2354 19.0307 13.9978 19.0307ZM11.9044 18.24H13.6045V16.54H11.9044V18.24Z" fill="white"/>
</svg>
