<svg width="125" height="118" viewBox="0 0 125 118" fill="none" xmlns="http://www.w3.org/2000/svg">
<g clip-path="url(#clip0_1012_17339)">
<path d="M55.5273 94.4183V99.3278H73.5114L71.8705 94.4183H55.5273Z" fill="#19754C"/>
<path d="M91.9592 16.2425C92.1006 16.2425 92.2406 16.2703 92.3712 16.3244C92.5018 16.3785 92.6204 16.4578 92.7204 16.5578C92.8203 16.6577 92.8996 16.7764 92.9537 16.907C93.0078 17.0376 93.0357 17.1775 93.0357 17.3189V59.8111L97.9539 61.7714V17.3189C97.9516 15.7297 97.3193 14.2063 96.1956 13.0826C95.0718 11.9589 93.5484 11.3265 91.9592 11.3242H55.5273V16.2425H91.9592Z" fill="#19754C"/>
<path d="M87.0628 25.1689H67.4773V30.0872H87.0628V25.1689Z" fill="#19754C"/>
<path d="M87.0628 39.0266H67.4773V43.9449H87.0628V39.0266Z" fill="#19754C"/>
<path d="M87.0629 52.8713H75.6423L87.0629 57.4264V52.8713Z" fill="#19754C"/>
<path d="M60.8875 25.1689H55.5273V30.0872H60.8875V25.1689Z" fill="#19754C"/>
<path d="M60.8875 39.0266H55.5273V43.9449H60.8875V39.0266Z" fill="#19754C"/>
<path d="M60.8875 52.8713H55.5273V57.7896H60.8875V52.8713Z" fill="#19754C"/>
<path d="M60.8875 66.7159H55.5273V71.6342H60.8875V66.7159Z" fill="#19754C"/>
<path d="M60.8875 80.5737H55.5273V85.492H60.8875V80.5737Z" fill="#19754C"/>
<path d="M55.5274 85.492V80.5737V0L0 13.7834V96.8775L55.5274 110.661V85.492ZM39.3373 75.9749L30.5422 75.4717L25.2039 64.2831L20.1544 74.881L11.8406 74.4128L20.9376 55.3304L11.8406 36.2481L20.1544 35.7799L25.2039 46.3822L30.5422 35.1892L39.3198 34.686L29.4746 55.3304L39.3373 75.9749Z" fill="#19754C"/>
<path d="M87.063 57.7896H87.0761V57.4308L87.063 57.4264V57.7896Z" fill="#1B8E3B"/>
<path d="M124.226 105.375L108.473 89.6227L119.714 83.1379C120.151 82.8945 120.509 82.5314 120.747 82.0914C120.984 81.6513 121.091 81.1526 121.055 80.6539C121.018 80.1552 120.84 79.6772 120.542 79.2762C120.243 78.8752 119.836 78.5679 119.369 78.3903L69.2845 58.4153C68.8034 58.2124 68.2728 58.1576 67.7604 58.2578C67.248 58.358 66.7771 58.6088 66.4079 58.9779C66.0387 59.3471 65.788 59.818 65.6877 60.3304C65.5875 60.8429 65.6424 61.3735 65.8452 61.8546L85.8202 111.947C86.0045 112.409 86.315 112.81 86.7163 113.103C87.1176 113.396 87.5934 113.571 88.0893 113.607C88.5852 113.642 89.081 113.538 89.5201 113.304C89.9592 113.071 90.3238 112.719 90.5722 112.289L97.057 101.078L112.809 116.831C113.054 117.079 113.345 117.276 113.666 117.41C113.987 117.545 114.332 117.614 114.68 117.614C115.028 117.614 115.373 117.545 115.694 117.41C116.015 117.276 116.306 117.079 116.551 116.831L124.234 109.147C124.486 108.902 124.687 108.608 124.823 108.284C124.96 107.959 125.03 107.611 125.029 107.259C125.028 106.907 124.956 106.559 124.818 106.236C124.68 105.912 124.479 105.619 124.226 105.375Z" fill="#19754C"/>
</g>
<defs>
<clipPath id="clip0_1012_17339">
<rect width="125" height="117.574" fill="white"/>
</clipPath>
</defs>
</svg>
