<svg width="22" height="22" viewBox="0 0 22 22" fill="none" xmlns="http://www.w3.org/2000/svg">
<path d="M8.33242 8.24992C8.54793 7.63728 8.97331 7.12068 9.53321 6.79162C10.0931 6.46256 10.7514 6.34228 11.3915 6.45207C12.0316 6.56186 12.6122 6.89465 13.0304 7.39149C13.4486 7.88832 13.6776 8.51715 13.6766 9.16659C13.6766 10.9999 10.9266 11.9166 10.9266 11.9166M10.9999 15.5833H11.0091M20.1666 10.9999C20.1666 16.0625 16.0625 20.1666 10.9999 20.1666C5.93731 20.1666 1.83325 16.0625 1.83325 10.9999C1.83325 5.93731 5.93731 1.83325 10.9999 1.83325C16.0625 1.83325 20.1666 5.93731 20.1666 10.9999Z" stroke="#98A2B3" stroke-width="1.33333" stroke-linecap="round" stroke-linejoin="round"/>
</svg>
