<svg width="125" height="111" viewBox="0 0 125 111" fill="none" xmlns="http://www.w3.org/2000/svg">
<g clip-path="url(#clip0_1011_17147)">
<path d="M55.2693 94.2673V99.1766H67.4586C66.4223 97.6204 65.5209 95.9779 64.7642 94.2673H55.2693Z" fill="#19754C"/>
<path d="M91.5334 16.2159C91.6741 16.2159 91.8134 16.2437 91.9434 16.2977C92.0734 16.3518 92.1916 16.4309 92.2911 16.5307C92.3906 16.6305 92.4695 16.749 92.5234 16.8794C92.5772 17.0099 92.6049 17.1496 92.6049 17.2908V48.007C93.3262 47.9605 94.0475 47.9295 94.779 47.9295C95.6961 47.9295 96.6028 47.976 97.4992 48.0483V17.2908C97.4965 15.7045 96.8671 14.1841 95.7489 13.0624C94.6306 11.9408 93.1148 11.3094 91.5334 11.3067H55.2693V16.2159H91.5334Z" fill="#19754C"/>
<path d="M86.6597 25.13H67.165V30.0392H86.6597V25.13Z" fill="#19754C"/>
<path d="M86.6597 38.9637H67.165V43.8729H86.6597V38.9637Z" fill="#19754C"/>
<path d="M77.6079 52.787H67.165V57.6962H71.4411C73.2948 55.8197 75.3651 54.1717 77.6079 52.787Z" fill="#19754C"/>
<path d="M60.6066 25.13H55.2693V30.0392H60.6066V25.13Z" fill="#19754C"/>
<path d="M60.6066 38.9637H55.2693V43.8729H60.6066V38.9637Z" fill="#19754C"/>
<path d="M60.6066 52.787H55.2693V57.6962H60.6066V52.787Z" fill="#19754C"/>
<path d="M60.6066 66.6104H55.2693V71.5196H60.6066V66.6104Z" fill="#19754C"/>
<path d="M60.6066 80.444H55.2693V85.3532H60.6066V80.444Z" fill="#19754C"/>
<path d="M55.2693 85.3532V0L0 13.7613V96.7219L55.2693 110.483V85.3532ZM39.1543 75.8552L30.3961 75.3384L25.0896 64.1764L20.0614 74.7596L11.7875 74.2946L20.8445 55.2416L11.7875 36.1732L20.0614 35.7081L25.0896 46.3068L30.3961 35.1397L39.1543 34.6229L29.3657 55.2365L39.1543 75.8552Z" fill="#19754C"/>
<mask id="mask0_1011_17147" style="mask-type:luminance" maskUnits="userSpaceOnUse" x="65" y="50" width="60" height="61">
<path d="M124.995 50.8905H65.0681V111H124.995V50.8905Z" fill="white"/>
</mask>
<g mask="url(#mask0_1011_17147)">
<path d="M95.0314 55.0246C100.142 55.0246 105.139 56.5448 109.388 59.393C113.638 62.2412 116.95 66.2895 118.906 71.0258C120.862 75.7622 121.374 80.974 120.377 86.0021C119.38 91.0302 116.918 95.6489 113.304 99.2739C109.69 102.899 105.086 105.368 100.073 106.368C95.0601 107.368 89.8642 106.855 85.1422 104.893C80.4202 102.931 76.3843 99.6086 73.5447 95.346C70.7052 91.0834 69.1896 86.0719 69.1896 80.9452C69.1978 74.0732 71.923 67.4849 76.7675 62.6256C81.612 57.7663 88.1803 55.0328 95.0314 55.0246ZM95.0314 50.8905C89.1055 50.8915 83.3129 52.6551 78.3861 55.9582C73.4593 59.2612 69.6197 63.9555 67.3526 69.4474C65.0855 74.9393 64.4929 80.9821 65.6496 86.8118C66.8063 92.6415 69.6605 97.9963 73.8511 102.199C78.0418 106.402 83.3807 109.264 89.1929 110.423C95.0051 111.582 101.029 110.987 106.504 108.712C111.979 106.437 116.658 102.585 119.951 97.6422C123.243 92.6999 125 86.8893 125 80.9452C125 76.998 124.225 73.0894 122.719 69.4426C121.212 65.7959 119.005 62.4824 116.222 59.6915C113.439 56.9006 110.135 54.6869 106.499 53.1768C102.864 51.6667 98.9667 50.8898 95.0314 50.8905Z" fill="#19754C"/>
<path d="M83.5684 78.5113C85.6708 79.6445 87.5606 81.1361 89.153 82.9193C93.7897 75.4469 98.8025 71.3077 105.335 65.4321L105.969 65.1841H113.12C103.537 75.8603 96.1184 84.6608 89.4518 97.5332C85.9898 90.1074 82.9038 84.9811 75.9951 80.227L83.5684 78.5113Z" fill="#19754C"/>
</g>
</g>
<defs>
<clipPath id="clip0_1011_17147">
<rect width="125" height="111" fill="white"/>
</clipPath>
</defs>
</svg>
