<svg width="139" height="132" viewBox="0 0 139 132" fill="none" xmlns="http://www.w3.org/2000/svg">
<g clip-path="url(#clip0_3631_949)">
<path d="M73.6632 31.1482L77.5132 29.4032L80.3359 32.5457L79.8896 28.3259L83.7389 26.5844L79.6146 25.7206L79.1683 21.5008L77.0627 25.1861L72.9384 24.3223L75.7653 27.4621L73.6632 31.1482Z" fill="#485261"/>
<path d="M56.5863 29.1429L56.1686 33.367L58.9746 30.1883L62.8327 31.8836L60.7055 28.224L63.5107 25.0486L59.3923 25.9642L57.2643 22.3079L56.8466 26.532L52.7281 27.4476L56.5863 29.1429Z" fill="#485261"/>
<path d="M45.0129 35.5204L46.1893 31.4409L42.8587 34.0501L39.3731 31.6738L40.8013 35.6645L37.4674 38.273L41.6824 38.1296L43.1113 42.1169L44.2869 38.0408L48.4993 37.8932L45.0129 35.5204Z" fill="#485261"/>
<path d="M92.5689 37.2242L93.8634 41.2618L95.1759 37.2251L99.3901 37.2204L95.9851 34.7292L97.2976 30.6925L93.8813 33.1875L90.4763 30.6963L91.7716 34.7304L88.3546 37.2289L92.5689 37.2242Z" fill="#485261"/>
<path d="M102.871 50.3108L102.312 54.516L105.221 51.4373L109.024 53.26L107.017 49.5329L109.927 46.4507L105.781 47.2286L103.777 43.5022L103.217 47.7109L99.0719 48.4853L102.871 50.3108Z" fill="#485261"/>
<path d="M64.3829 100.709L60.537 102.451L57.7101 99.3116L58.1571 103.528L54.3072 105.273L58.4348 106.138L58.8819 110.354L60.9833 106.671L65.1076 107.535L62.2814 104.392L64.3829 100.709Z" fill="#485261"/>
<path d="M81.8774 98.4903L79.0722 101.666L75.2133 99.9737L77.3412 103.63L74.536 106.805L78.6544 105.89L80.7824 109.546L81.1994 105.325L85.3186 104.406L81.4597 102.714L81.8774 98.4903Z" fill="#485261"/>
<path d="M93.0331 96.337L91.8575 100.413L95.188 97.8038L98.6736 100.18L97.2454 96.1894L100.579 93.5809L96.3636 93.7278L94.9354 89.737L93.7591 93.8165L89.5475 93.9607L93.0331 96.337Z" fill="#485261"/>
<path d="M44.1826 90.5955L42.8701 94.6323L38.6567 94.6335L42.0609 97.1281L40.7492 101.161L44.1655 98.6664L47.5704 101.158L46.2751 97.1235L49.6914 94.6285L45.4779 94.6297L44.1826 90.5955Z" fill="#485261"/>
<path d="M35.7345 77.3381L32.825 80.4203L29.0225 78.5941L31.0295 82.3212L28.1199 85.4034L32.2661 84.6256L34.2697 88.352L34.8286 84.1467L38.9748 83.3688L35.175 81.5468L35.7345 77.3381Z" fill="#485261"/>
<path d="M129.791 63.5921L121.725 61.9029C122.214 61.4457 122.797 60.9585 123.475 60.4235C123.721 60.2257 123.708 60.0554 123.428 59.9042C118.152 57.0922 118.105 56.0457 121.852 51.2323C122.036 50.993 121.993 50.8272 121.708 50.7354C115.602 48.573 116.277 48.1371 118.207 42.5549C118.296 42.2991 118.203 42.137 117.95 42.0913C117.561 42.0097 117.091 41.9398 116.585 41.8518C116.394 42.4282 115.798 42.7559 115.805 41.8807C115.816 41.8234 115.842 41.77 115.88 41.7254C114.863 41.5124 113.865 41.2107 113.355 40.6229C111.616 38.6908 113.174 36.708 113.429 34.545C113.444 34.4957 113.448 34.4433 113.44 34.3923C113.431 34.3413 113.41 34.2931 113.38 34.2518C113.349 34.2104 113.309 34.1771 113.262 34.1547C113.216 34.1323 113.165 34.1213 113.114 34.1228C108.057 33.4556 106.201 33.1596 107.951 27.3402C107.965 27.2923 107.967 27.2417 107.957 27.193C107.946 27.1443 107.924 27.0989 107.892 27.0611C107.86 27.0232 107.819 26.9941 107.773 26.9762C107.726 26.9584 107.677 26.9524 107.627 26.9588L107.318 27.0009C107.376 27.013 107.424 27.1194 107.379 27.1491C107.362 27.1508 107.344 27.1487 107.328 27.143C107.311 27.1373 107.296 27.1281 107.284 27.116C107.271 27.1039 107.261 27.0892 107.255 27.0729C107.248 27.0566 107.245 27.0391 107.246 27.0216C107.246 27.0145 107.248 27.0075 107.251 27.0011C106.502 27.1009 105.748 27.1536 104.993 27.1588C104.99 27.3223 104.778 27.5771 104.704 27.4548C104.672 27.6084 104.633 27.6785 104.738 27.8181L104.761 27.9619C104.666 27.942 103.839 28.2427 103.845 27.9946C103.864 27.9024 104.55 27.3797 104.703 27.4616C104.687 27.356 104.709 27.2481 104.766 27.1578C102.056 27.0782 100.66 25.8524 101.109 21.649C101.117 21.5627 101.102 21.4757 101.064 21.3977C101.027 21.3198 100.968 21.2539 100.896 21.2074C100.823 21.1608 100.739 21.1354 100.653 21.134C100.567 21.1325 100.482 21.1551 100.407 21.1992C99.6332 21.6951 98.7566 22.0055 97.8454 22.1063C96.9342 22.2071 96.0128 22.0956 95.1525 21.7805C95.0108 21.7379 94.8827 21.6585 94.7812 21.5504C94.6797 21.4422 94.6083 21.309 94.5741 21.1641L93.4883 17.2273C93.4837 17.1857 93.469 17.146 93.4457 17.1115C93.4224 17.077 93.3911 17.0488 93.3545 17.0292C93.3178 17.0096 93.277 16.9993 93.2355 16.9991C93.194 16.9989 93.153 17.0089 93.1161 17.0281C92.2905 17.322 91.5556 17.5708 90.8956 17.7496C90.9708 17.905 91.034 18.066 91.0848 18.2311C90.8871 18.432 90.798 18.5025 90.6603 18.1636C90.6881 18.2336 90.7278 17.9426 90.7382 17.7915C87.881 18.5293 86.4771 17.8683 85.6205 13.5127C85.5737 13.2463 85.4339 13.1707 85.2034 13.3255C83.2348 14.4312 81.9875 15.1677 81.0283 15.373C81.071 15.439 81.1015 15.5131 81.0829 15.5341C80.9834 15.638 80.82 15.5396 80.7908 15.4088C79.3796 15.5765 78.4871 14.4666 76.4782 11.4411C76.4339 11.3746 76.3745 11.3198 76.3048 11.2813C76.2351 11.2428 76.1572 11.2216 76.0776 11.2196C75.9981 11.2176 75.9191 11.2348 75.8474 11.2697C75.7757 11.3047 75.7132 11.3564 75.6653 11.4205C74.8072 12.594 73.6716 13.5334 72.362 14.153C72.1541 14.2561 71.9169 14.2821 71.6922 14.2265C70.7545 14.0349 69.871 13.6371 69.1049 13.0615C68.3387 12.4859 67.7088 11.7466 67.2601 10.8966C67.2266 10.8332 67.1769 10.7799 67.1162 10.7421C67.0555 10.7043 66.9859 10.6834 66.9145 10.6815C66.843 10.6795 66.7723 10.6966 66.7095 10.7311C66.6466 10.7655 66.5939 10.816 66.5566 10.8775C63.4702 15.8006 62.0763 15.4801 58.0686 11.7794C57.8621 11.5829 57.6987 11.62 57.5941 11.8831C56.5725 14.4129 55.7259 15.7357 54.5805 16.1373C54.5882 16.2023 54.5788 16.2683 54.5531 16.3286C54.5274 16.3889 54.4864 16.4414 54.4343 16.4808C54.4122 16.3821 54.4037 16.2808 54.4089 16.1797C54.1314 16.2508 53.8442 16.2749 53.5591 16.2511C53.61 16.4247 53.645 16.6025 53.6636 16.7826C53.7102 16.999 53.9963 17.5079 53.6949 17.68C53.5641 17.4602 53.3214 16.5078 53.4437 16.2448C53.0526 16.1988 52.668 16.1087 52.2972 15.9762C52.3401 16.0921 52.3506 16.194 52.2863 16.2305C52.1026 16.3309 51.5972 16.0077 51.7919 15.7706C51.0855 15.4705 50.3958 15.1322 49.726 14.7571C49.726 14.7571 49.726 14.7571 49.7217 14.7775C49.7211 15.287 49.3663 14.7851 49.1947 14.5068C49.1448 14.4986 49.0936 14.5067 49.0486 14.53C49.0036 14.5533 48.9671 14.5905 48.9447 14.6362L48.939 14.6635C48.921 14.6922 48.9052 14.7223 48.8919 14.7534C47.2548 19.107 46.9844 20.4828 43.2217 19.5985C42.835 19.8739 42.4173 20.0608 42.3101 19.6606C42.304 19.6103 42.3095 19.5593 42.3263 19.5115C42.3431 19.4637 42.3706 19.4204 42.4067 19.3851C42.0288 19.281 41.6266 19.1575 41.1845 19.0222C41.089 18.9922 40.9882 18.9827 40.8888 18.9945C40.7893 19.0063 40.6933 19.039 40.6071 19.0905C40.5209 19.142 40.4464 19.2112 40.3884 19.2935C40.3305 19.3759 40.2903 19.4695 40.2706 19.5684L39.4841 23.3233C39.4618 23.428 39.4217 23.5281 39.3656 23.6192C39.3496 23.6635 39.3254 23.7043 39.2943 23.7396C39.2986 23.7192 39.3001 23.7123 39.3015 23.7055C39.2624 23.7578 39.218 23.8058 39.1689 23.8488C38.6263 24.3275 37.9579 24.6381 37.2447 24.7428C37.2151 24.7829 37.181 24.7936 37.1118 24.7862L37.1182 24.7555C35.7973 24.9314 34.4068 24.544 33.0786 24.501C32.8042 24.4934 32.6982 24.628 32.7266 24.8976C32.8638 25.8093 32.9074 26.7331 32.8568 27.6544C33.0355 27.7132 32.9418 28.228 32.7877 28.2207C32.7748 28.2822 32.762 28.3436 32.7491 28.405C32.8649 28.3758 32.9826 28.3542 33.0896 28.316C33.2573 28.2585 33.3165 28.4491 33.4937 28.2617C33.5892 28.1605 33.5283 27.877 33.5372 27.8681C33.6561 27.7398 33.6886 27.6183 33.7205 27.6179C33.7524 27.6175 33.7162 27.6384 33.7371 27.657C33.7371 27.657 33.7874 27.721 33.7627 27.7372L33.8297 27.8902C33.873 28.0382 33.9796 28.3741 33.7799 28.4321C33.4064 28.6197 33.0186 28.7768 32.6203 28.9019C31.9196 31.0143 29.7679 31.1195 26.2277 30.9125C25.9331 30.9007 25.8488 31.0327 25.9411 31.3015C28.0509 37.0883 26.2423 37.9709 21.0049 38.7055C20.7322 38.7411 20.6484 38.8874 20.7721 39.1414C21.0899 39.803 21.3569 40.3863 21.5721 40.9124L14.2995 39.3893L8.25041 68.2715L17.1124 70.1275C16.8079 71.0579 15.9047 72.1444 14.3107 73.6742C14.0891 73.8879 14.1061 74.0767 14.3776 74.2334C18.9164 76.8338 19.7392 78.631 15.8411 82.4469C15.6381 82.6395 15.6705 82.7888 15.9289 82.8893C17.322 83.4162 19.2403 83.7325 20.2432 84.4842C22.2519 85.9738 20.4418 89.3968 19.2992 90.9C19.263 90.9477 19.2396 91.004 19.2313 91.0635C19.223 91.1229 19.2301 91.1834 19.2518 91.2392C19.2736 91.295 19.3093 91.3442 19.3555 91.382C19.4017 91.4197 19.4568 91.4448 19.5155 91.4548C25.2637 92.5376 26.0029 92.9775 24.3287 98.8768C24.3039 98.9606 24.3005 99.0491 24.3187 99.1344C24.3369 99.2197 24.3762 99.2989 24.4329 99.3648C24.4896 99.4306 24.5619 99.481 24.6432 99.5112C24.7244 99.5414 24.812 99.5505 24.8978 99.5377C28.6816 98.9868 29.939 99.8238 30.2621 101.609C30.4894 101.503 30.7764 101.4 30.8953 101.204C31.0702 100.909 30.8022 100.685 30.8746 100.458C30.9867 100.125 31.3494 99.9981 31.469 99.7309C31.5192 99.6096 31.3084 99.5013 31.4526 99.2856C31.4948 99.2196 31.6102 99.5467 31.6994 99.4585C31.9611 99.189 31.7086 98.5197 31.8021 98.411C32.0118 98.1698 32.3979 98.3362 32.5874 98.5969C32.7769 98.8575 32.7081 99.1353 32.8969 99.3993C33.0857 99.6633 34.6982 100.714 33.5822 100.908C33.4409 100.771 33.5043 100.62 33.3563 100.483C33.3191 100.475 32.7874 100.192 32.7678 100.185C32.3719 100.048 32.2939 100.032 31.9615 100.319C31.7378 100.515 31.5409 100.739 31.3758 100.987C31.2117 101.213 31.1006 101.642 30.8596 101.763C30.3452 102.04 30.6574 102.255 30.3696 102.565C30.3995 103.537 30.2759 104.701 30.178 106.013C30.1532 106.3 30.2845 106.417 30.558 106.378C35.8549 105.595 37.1156 105.471 37.2749 110.571C37.2814 110.583 37.2834 110.597 37.2807 110.61C37.2779 110.623 37.2705 110.635 37.2598 110.643C37.2699 110.984 37.2727 111.358 37.2756 111.733C37.278 112.026 37.4142 112.119 37.6863 112.019L37.8827 111.942L37.8653 111.857C37.8306 111.668 37.9218 111.587 38.0861 111.596L38.247 111.605C38.3249 111.622 38.3606 111.654 38.3448 111.729C38.3448 111.729 38.3448 111.729 38.3398 111.753C39.8891 111.112 42.3986 110.109 43.4642 111.169C44.3443 112.034 44.6169 114.618 45.0751 115.875C45.0832 115.928 45.105 115.978 45.1383 116.019C45.1716 116.061 45.2151 116.092 45.2646 116.112C45.3141 116.131 45.3678 116.136 45.4201 116.128C45.4725 116.119 45.5218 116.097 45.5629 116.063C50.6801 113.183 50.8986 113.457 53.3108 118.644C53.3283 118.697 53.3581 118.745 53.3979 118.784C53.4377 118.823 53.4863 118.852 53.5394 118.868C53.5926 118.884 53.6489 118.887 53.7035 118.876C53.7581 118.866 53.8095 118.842 53.8532 118.808L57.8333 116.374C57.9134 116.322 58.0048 116.29 58.0997 116.281C58.1946 116.272 58.2901 116.287 58.3779 116.324C60.3362 117.108 60.9516 119.001 62.1867 120.535C62.2095 120.576 62.2426 120.611 62.2826 120.635C62.3227 120.66 62.3684 120.673 62.4153 120.674C62.4621 120.676 62.5085 120.664 62.5499 120.642C62.5913 120.62 62.6262 120.587 62.6512 120.547L65.4537 117.571C65.6094 117.405 65.7975 117.275 66.006 117.186C66.2145 117.098 66.4389 117.055 66.6647 117.059C66.8906 117.063 67.113 117.114 67.3178 117.21C67.5225 117.305 67.7051 117.443 67.8538 117.614L70.6867 120.826C70.8426 120.994 70.9785 120.987 71.1109 120.794C74.232 116.127 74.3853 115.632 79.0685 119.3C79.1051 119.34 79.1514 119.371 79.203 119.388C79.2547 119.406 79.31 119.41 79.3636 119.399C79.4172 119.389 79.4674 119.365 79.5092 119.33C79.5511 119.295 79.5834 119.249 79.6028 119.198C80.1201 118.316 81.0175 115.974 82.2328 115.373L76.2175 114.113C76.3629 114.044 76.3481 113.709 76.5283 113.558C76.5811 113.515 76.6367 113.476 76.6946 113.44L81.6085 114.469C81.6501 114.524 81.687 114.567 81.6848 114.578C81.6889 114.547 81.6883 114.515 81.6831 114.485L82.127 114.578C82.0734 114.834 82.0835 115.107 82.4001 114.963C82.4001 114.963 82.509 114.814 82.6083 114.678L88.2915 115.869C88.2608 115.812 88.2416 115.769 88.2416 115.769C88.2448 115.652 88.6033 115.342 88.3985 115.374C88.4078 115.33 88.4507 115.125 88.5991 115.092C88.7015 114.771 88.8218 114.456 88.9595 114.149C89.9606 111.953 91.2219 112.484 94.2832 113.272C94.2392 113.262 94.1447 113.072 94.1792 113.025C94.2832 112.883 94.4253 113.134 94.3753 113.237L94.3227 113.269L94.3057 113.266C94.7555 113.381 95.2393 113.504 95.7726 113.626C95.827 113.647 95.8855 113.654 95.9434 113.648C96.0012 113.641 96.0568 113.621 96.1055 113.589C96.1543 113.557 96.1949 113.514 96.224 113.463C96.2531 113.412 96.27 113.355 96.2732 113.296L97.1196 109.07C97.1996 108.681 97.4221 108.337 97.7427 108.105C98.0633 107.874 98.4584 107.772 98.8492 107.821L103.306 108.398C103.588 108.436 103.711 108.305 103.679 108.02C103.065 102.507 104.342 101.881 109.452 102.413C109.732 102.443 109.85 102.318 109.811 102.032C109.488 99.8832 109.343 98.4868 109.376 97.843C109.498 95.7911 113.602 95.35 115.005 95.3553C115.254 95.3504 115.329 95.2306 115.235 95.0042C114.374 92.8819 113.918 91.4609 114.041 90.432L123.744 92.4641L129.791 63.5921ZM104.328 27.5257C104.311 27.5282 104.294 27.5268 104.278 27.5216C104.261 27.5163 104.246 27.5075 104.234 27.4956C104.221 27.4838 104.212 27.4692 104.206 27.4531C104.2 27.4369 104.197 27.4196 104.199 27.4024C104.251 27.2851 104.399 27.4941 104.328 27.5257ZM34.0256 26.6342C33.8279 26.8351 33.6395 26.7885 33.395 26.723C33.611 26.5513 33.8417 26.3993 34.0844 26.2688C34.1672 26.3467 34.0943 26.5595 34.0256 26.6342ZM26.5767 32.557C26.6117 32.5401 26.6513 32.5352 26.6892 32.5432C26.7272 32.5511 26.7615 32.5715 26.7868 32.601L26.5767 32.557ZM32.4048 101.124C32.3931 100.944 33.0571 100.712 33.2063 100.861C33.3556 101.01 32.4248 101.485 32.4048 101.124ZM114.756 49.5717C114.705 49.6321 114.672 49.6216 114.658 49.5511C114.705 49.479 114.739 49.4861 114.756 49.5717ZM115.074 43.798C115.025 43.8105 114.974 43.8129 114.924 43.8053C114.874 43.7976 114.826 43.7799 114.782 43.7533C114.739 43.7266 114.702 43.6916 114.672 43.6502C114.643 43.6087 114.622 43.5618 114.611 43.512C114.953 43.2274 115.297 43.7128 115.067 43.7965L115.074 43.798ZM115.031 47.5196C115.081 48.2428 113.63 47.4508 113.677 46.9724C113.724 46.4941 115.008 47.0339 115.031 47.5196ZM113.748 48.409C113.767 48.3301 113.806 48.2574 113.861 48.1973C113.916 48.1372 113.984 48.0917 114.06 48.0647C114.41 47.9812 114.156 48.8046 113.748 48.4056L113.748 48.409ZM113.613 48.8832C113.524 48.8326 113.526 48.7936 113.618 48.7595C113.708 48.7998 113.707 48.8388 113.614 48.8798L113.613 48.8832ZM113.945 48.9883C113.964 48.9634 113.989 48.9438 114.018 48.9315C114.046 48.9192 114.078 48.9147 114.109 48.9183C114.14 48.9219 114.169 48.9336 114.194 48.9521C114.219 48.9707 114.239 48.9955 114.252 49.0242C114.195 49.1263 113.882 49.1178 113.959 48.9877L113.945 48.9883ZM114.052 43.0386C114.41 43.0174 114.408 43.3983 114.038 43.392C113.771 43.4502 113.762 43.0706 114.052 43.0386ZM113.002 46.9522C112.91 46.9009 112.916 46.8558 113.01 46.8114C113.092 46.8784 113.086 46.9235 112.999 46.9659L113.002 46.9522ZM113.887 42.4411C113.977 42.5491 113.576 42.7108 113.617 42.5628C113.659 42.4147 113.794 42.3433 113.884 42.4547L113.887 42.4411ZM111.384 41.589C111.423 41.6211 111.45 41.6653 111.461 41.7147C111.473 41.7642 111.468 41.8161 111.447 41.8623C111.378 42.0547 111.234 41.7144 111.381 41.6027L111.384 41.589ZM110.622 41.1873C110.735 41.1895 111.239 42.2464 110.771 41.931C110.652 41.8563 110.044 41.1801 110.62 41.2009L110.622 41.1873ZM110.586 37.5771C110.543 37.6821 110.5 37.6838 110.459 37.5755C110.501 37.4917 110.543 37.4934 110.583 37.5908L110.586 37.5771ZM107.05 32.0796C106.975 32.1494 106.942 32.1246 106.95 32.0015C107.022 31.9453 107.059 31.9531 107.05 32.0796ZM104.38 30.4228C104.496 30.4318 104.606 30.4821 104.689 30.5647C104.772 30.6473 104.823 30.7569 104.833 30.8741C104.83 30.8817 104.829 30.8898 104.828 30.898C104.848 30.8875 104.869 30.8787 104.891 30.8718C104.983 30.8377 105.645 30.7306 105.346 31.0134C105.046 31.2963 105.988 31.1196 106.005 31.2442C106.021 31.3687 105.864 31.4428 105.989 31.6577C105.901 31.5039 106.163 32.1788 106.125 31.9856C106.172 32.2342 106.333 31.8368 106.212 32.2817C106.156 32.548 105.869 32.1102 105.826 32.5181C105.478 32.4915 105.36 31.7719 105.268 31.8061C105.244 31.8011 105.232 31.9768 105.226 32.0041C104.977 31.745 104.726 31.4894 104.483 31.2318C104.554 31.2009 104.614 31.1489 104.655 31.0827C104.53 31.1597 104.277 31.5024 104.019 31.3664C103.542 31.1097 104.065 30.9271 104.093 30.7296C104.095 30.6982 104.102 30.6673 104.112 30.6375C104.095 30.5662 104.187 30.2435 104.38 30.4228ZM105.327 32.4349C105.286 32.446 105.244 32.4539 105.202 32.4586C105.088 32.3599 105.272 32.3593 105.327 32.4349ZM104.148 32.3589C104.035 32.3744 103.835 31.9585 104.038 31.9013C104.174 31.862 104.421 32.32 104.148 32.3589ZM103.936 31.6803C103.873 31.5959 103.884 31.5447 103.968 31.5267C104.04 31.6129 104.031 31.6646 103.943 31.6817L103.936 31.6803ZM103.751 31.5346C103.961 32.22 102.934 31.7198 102.593 31.4348C102.51 31.4635 102.37 31.3879 102.508 31.3528C102.286 31.0283 103.645 31.1775 103.757 31.536L103.751 31.5346ZM102.387 31.1029C102.247 31.0095 102.686 30.4529 102.928 30.6318C102.998 30.6857 102.553 31.2054 102.394 31.1043L102.387 31.1029ZM102.885 27.2877C102.769 27.5377 102.594 27.2266 102.531 27.1708C102.298 26.9187 103.12 27.8892 103.051 27.6965C103.183 28.0804 102.895 27.6638 102.776 27.7778C102.309 28.3179 103.882 28.0345 103.694 28.3763C103.61 28.5227 103.25 28.401 103.149 28.4617C103.208 28.5965 103.241 28.7413 103.247 28.8885C103.243 29.0765 102.87 28.8487 102.98 28.5938C102.803 28.7456 102.583 28.9846 102.814 29.0794C102.961 29.1386 103.443 28.9686 103.683 29.1722C103.836 29.3006 104.244 29.956 104.038 30.1945C103.681 30.6184 103.306 30.0412 103.001 29.6566C102.849 29.6424 102.717 29.597 102.728 29.4924C102.736 29.4549 102.741 29.4276 102.748 29.3968C102.785 29.2193 102.865 29.2788 102.986 29.24C102.944 29.2527 102.979 29.2742 103.049 29.2959C103.118 29.3176 103.09 29.2333 103.039 29.2083C102.987 29.1833 102.664 29.308 102.659 29.3319C101.96 28.8506 102.894 28.8181 102.729 28.4236C102.674 28.3124 102.471 28.6083 102.428 28.6778C102.549 28.3717 102.272 28.8127 102.258 28.9165C102.06 28.7112 100.33 26.9412 100.564 26.8692C100.667 26.8558 100.769 26.8367 100.87 26.812C101.009 26.8411 101.094 27.1085 101.27 27.0633C101.751 26.9432 101.59 26.6671 101.952 26.3581C102.281 26.6765 102.575 26.9803 102.893 27.2857L102.885 27.2877ZM103.276 28.5632C103.317 28.5041 103.362 28.5099 103.412 28.5916C103.45 28.5903 103.487 28.5785 103.519 28.5575C103.55 28.5365 103.576 28.5072 103.592 28.4727C103.817 28.7192 103.175 28.8626 103.284 28.5612L103.276 28.5632ZM101.354 29.112C101.185 29.5114 100.79 28.7801 101.316 28.9045C101.344 28.9297 101.363 28.9639 101.37 29.0015C101.377 29.0391 101.371 29.078 101.354 29.112ZM101.445 26.8007C101.408 26.7751 101.199 26.6388 100.999 26.4827C100.983 26.5037 100.961 26.5182 100.936 26.5235C100.91 26.5287 100.884 26.5243 100.862 26.5111C100.856 26.4907 100.855 26.469 100.859 26.4481C100.863 26.4272 100.873 26.4078 100.887 26.3916C100.643 26.1873 100.476 25.9884 100.78 25.9914C101.083 25.9944 102.098 26.0645 101.438 26.7993L101.445 26.8007ZM101.168 25.8946C100.884 25.9492 100.583 25.6829 100.88 25.5812C100.921 25.5542 101.517 25.8323 101.161 25.8932L101.168 25.8946ZM100.829 25.2143L101.011 25.3915C100.955 25.4081 100.612 25.5074 100.659 25.3853L100.829 25.2143ZM100.499 26.3032C100.712 26.3479 100.689 26.3251 100.816 26.4765C100.764 26.5582 100.301 26.5861 100.231 26.55C100.161 26.5139 100.461 26.2953 100.499 26.3032ZM100.114 25.321C100.191 25.3229 100.219 25.3574 100.198 25.4242C100.12 25.4079 100.089 25.3728 100.116 25.3073L100.114 25.321ZM99.534 24.0344C99.5186 24.0288 99.5045 24.0199 99.4929 24.0083C99.4812 23.9968 99.4721 23.9828 99.4663 23.9674C99.4605 23.952 99.458 23.9355 99.4591 23.919C99.4601 23.9025 99.4647 23.8864 99.4725 23.8719C99.5348 23.8956 99.6635 23.9903 99.5368 24.0207L99.534 24.0344ZM98.3636 24.167C98.5425 23.8196 98.322 23.7236 98.9231 23.9955C98.8993 23.9906 99.6472 24.5748 99.7127 24.4139C99.6495 24.6145 99.3588 24.4146 99.3296 24.7399C99.3503 24.9253 99.4078 25.1046 99.4987 25.267C99.6786 25.4666 99.8776 25.6479 100.093 25.8084C100.017 25.9968 99.9123 26.1721 99.7824 26.3278C99.7212 26.2651 99.6608 26.1989 99.5989 26.1397C99.6001 26.4214 99.0911 25.5915 98.9754 25.4853C99.8659 25.49 98.816 24.8105 98.7828 24.9354C98.7496 25.0603 99.1861 25.0875 98.8565 25.3606C98.6933 25.1907 98.5071 25.0449 98.3033 24.9276C98.2067 24.8147 98.2065 24.7648 98.3014 24.7847L98.2094 24.6834C98.2442 24.8047 97.7547 24.7771 97.8761 24.4675C97.942 24.2711 97.4474 23.8967 97.2881 23.7279C97.4814 23.5653 98.2141 24.492 98.3664 24.1533L98.3636 24.167ZM98.8715 27.8901C98.8486 27.9993 98.4338 28.1726 98.5183 27.8874C98.5517 27.6771 98.9008 27.7502 98.8743 27.8765L98.8715 27.8901ZM96.983 26.4684C96.9554 26.516 96.925 26.5595 96.8981 26.6038C96.8865 26.5408 96.875 26.3424 96.9859 26.4547L96.983 26.4684ZM98.4294 22.8053C98.5104 22.8579 98.4885 22.8783 98.3657 22.8561C98.288 22.822 98.3373 22.7219 98.4294 22.8053ZM98.1218 23.5141C98.3275 23.3933 98.2109 23.7644 98.0461 23.6729C98.0396 23.6426 98.0424 23.611 98.0541 23.5823C98.0658 23.5536 98.0859 23.5291 98.1116 23.512L98.1218 23.5141ZM97.6673 22.2217C97.9081 22.322 97.0293 22.9539 97.1084 22.6605C97.119 22.5594 97.5382 22.1626 97.6571 22.2196L97.6673 22.2217ZM96.8638 22.4097C96.9753 22.3333 96.8931 22.2698 97.1241 22.2647C97.5421 22.2453 96.7018 22.5076 96.8558 22.3974L96.8638 22.4097ZM96.6387 23.6026C97.0078 23.9008 96.6606 23.7854 96.6011 23.9511C96.47 24.2728 96.0572 23.0853 96.6307 23.5902L96.6387 23.6026ZM92.0258 22.8253C92.1379 22.6956 92.1411 22.9671 92.0337 23.0408C92.0021 23.0125 91.9828 22.9728 91.9798 22.9303C91.9768 22.8877 91.9904 22.8456 92.0178 22.813L92.0258 22.8253ZM91.8744 22.2306C91.935 22.279 91.9245 22.3124 91.8537 22.3296C91.7722 22.2627 91.7827 22.2292 91.8664 22.2183L91.8744 22.2306ZM92.0035 20.28C91.9359 20.3624 91.8457 20.4228 91.7442 20.4538C91.5322 20.2668 91.8122 19.9941 91.9955 20.2677L92.0035 20.28ZM91.7217 20.1391C91.6167 20.117 91.5974 20.0738 91.6121 19.97C91.7077 19.9865 91.7291 20.0194 91.7137 20.1267L91.7217 20.1391ZM91.5967 19.9418C91.4985 19.9213 91.4826 19.8787 91.4898 19.7769C91.5765 19.8022 91.5945 19.8345 91.6023 19.9323L91.5967 19.9418ZM91.3083 18.2281C91.4518 18.0835 91.559 18.0953 91.6752 18.2835C91.7326 18.3811 91.6667 19.0336 91.5501 18.8809C91.4335 18.7282 91.0888 18.4315 91.3003 18.2157L91.3083 18.2281ZM90.4893 18.8618C90.8737 18.7998 90.7746 18.2766 91.2159 18.5508C91.1583 18.5387 91.5339 19.1269 91.5405 19.1461C91.6161 19.3259 91.6977 19.6458 91.4672 19.733C91.0327 19.8985 91.3405 19.2397 91.3081 19.2257C91.1149 19.1176 91.0645 19.4598 90.8636 19.4391C90.6649 19.3059 90.4952 19.1334 90.3649 18.932L90.4893 18.8618ZM90.7105 19.7313C90.6132 19.7394 90.3784 19.5263 90.4223 19.4179C90.5684 19.1599 90.9417 19.7084 90.709 19.7381L90.7105 19.7313ZM86.6298 18.1354C86.823 18.1759 86.5795 19.5075 86.1883 19.112C86.0255 18.9603 86.5369 18.1231 86.6284 18.1423L86.6298 18.1354ZM86.2281 19.3947C86.159 19.4775 86.0648 19.5354 85.9601 19.5595C85.0825 20.0171 86.039 18.6424 86.2281 19.3947ZM85.4181 18.9043C85.3979 19.1531 85.2526 19.2046 85.1311 19.3965C84.8653 19.8041 84.9369 19.9688 84.949 19.4047C84.9499 19.1804 85.049 18.9268 85.058 18.7149C85.0506 18.5815 84.9675 18.6068 85.01 18.4376C85.0795 18.1564 85.4239 18.8093 85.4181 18.9043ZM85.1555 16.0878L85.0551 16.0097C85.1364 15.9591 85.308 16.052 85.1555 16.0878ZM85.0559 17.4922C85.0221 17.5163 84.9826 17.531 84.9415 17.5349C84.9003 17.5388 84.8588 17.5317 84.8213 17.5144C84.783 17.4778 84.7439 17.4447 84.7063 17.4048C84.7341 17.3853 84.7656 17.3719 84.7988 17.3653C84.8319 17.3586 84.8661 17.3589 84.8991 17.3662C84.9321 17.3734 84.9633 17.3875 84.9906 17.4074C85.0179 17.4273 85.0409 17.4527 85.058 17.482L85.0559 17.4922ZM84.9068 16.2281C84.9697 16.3161 84.959 16.3673 84.8739 16.3851C84.809 16.2896 84.8176 16.2486 84.9089 16.2179L84.9068 16.2281ZM84.6281 16.241C84.5616 16.3055 84.5047 16.29 84.4519 16.2041C84.5172 16.1287 84.5775 16.1449 84.6303 16.2308L84.6281 16.241ZM83.9849 18.4509C84.0492 18.5321 84.0344 18.586 83.9527 18.6045C83.8844 18.5083 83.8985 18.4578 83.987 18.4407L83.9849 18.4509ZM83.8218 15.8512L83.9729 15.8223C84.0578 15.8222 84.1017 15.8492 84.0965 15.9586C84.0338 16.0381 83.7442 15.9347 83.8308 15.8424L83.8218 15.8512ZM83.5243 15.0762C83.5879 15.1608 83.5738 15.2113 83.4921 15.2298C83.432 15.1282 83.4461 15.0777 83.5346 15.0606L83.5243 15.0762ZM83.137 15.5403C83.2125 15.467 83.2681 15.4716 83.2929 15.5729C83.3176 15.6743 83.0543 15.6477 83.137 15.5403ZM82.4142 16.7109C82.4342 16.664 82.4672 16.6239 82.5092 16.5954L82.3262 16.5571C82.3691 16.3522 82.8903 15.5528 83.1186 15.6113C83.0385 15.9936 83.5616 16.3169 83.0538 16.6132C82.9673 16.6455 82.8739 16.6542 82.7832 16.6385C82.8063 16.6523 82.8278 16.6688 82.8472 16.6876C82.8043 16.8924 82.5303 16.8492 82.4261 17.0091C82.4638 17.0391 82.4936 17.078 82.5127 17.1224C82.5318 17.1669 82.5396 17.2154 82.5355 17.2637C82.5168 17.3057 82.4893 17.3432 82.4549 17.3735C82.4204 17.4038 82.3798 17.4263 82.336 17.4393C82.0473 17.6041 81.7503 17.7536 81.4462 17.8872C80.9051 17.6669 81.6576 17.4183 81.7758 17.2934C81.8939 17.1685 81.8678 16.7354 82.129 16.6369C82.4605 16.5068 82.2053 16.7455 82.4142 16.7109ZM82.194 15.6172C82.3048 15.5442 82.4119 16.3505 81.9755 15.7318L82.194 15.6172ZM81.2374 16.0974C81.4546 16.175 81.8909 15.6962 81.8322 16.3146C81.7892 16.7902 81.4347 16.5236 81.3491 16.78C81.2884 16.9348 80.9587 16.9548 80.9916 16.7978C81.0131 16.6954 81.2724 16.7069 81.2336 16.5207C81.1948 16.3344 80.8387 16.16 80.8452 15.9262C80.8578 15.4941 81.1419 16.0632 81.2374 16.0974ZM80.6012 16.7196C80.5002 16.8303 80.2139 16.3392 80.2605 16.2349C80.4332 15.8328 80.9497 16.3222 80.6012 16.7196ZM79.8803 16.0234C79.7948 16.0768 79.7372 16.0647 79.7074 15.9872C79.7878 15.9078 79.8418 15.937 79.8701 16.0213L79.8803 16.0234ZM79.4951 16.0888C79.4097 16.1422 79.3494 16.126 79.3189 16.0519C79.3997 15.9869 79.4566 16.0024 79.485 16.0867L79.4951 16.0888ZM78.3371 14.7773C78.3403 14.7477 78.3508 14.7194 78.3677 14.6949C78.3846 14.6704 78.4072 14.6506 78.4337 14.6372C78.4372 14.6201 78.4394 14.6099 78.4779 14.6286C78.4627 14.6277 78.4475 14.6306 78.4337 14.6372C78.5036 14.8563 78.6116 15.0611 78.7527 15.2421C78.7655 15.3837 78.2334 15.2723 78.1673 15.1658C77.9956 14.8875 78.2775 14.9608 78.3284 14.7684L78.3371 14.7773ZM76.5972 16.4974C76.5904 16.5135 76.5802 16.5279 76.5673 16.5395C76.5544 16.5512 76.5391 16.5598 76.5225 16.5648C76.5059 16.5699 76.4884 16.5712 76.4713 16.5686C76.4542 16.5661 76.4378 16.5598 76.4234 16.5501C76.3685 16.4745 76.5965 16.3655 76.5885 16.4885L76.5972 16.4974ZM76.3772 16.6188C76.299 16.688 76.2468 16.6842 76.2213 16.5862C76.1958 16.4882 76.4878 16.4959 76.3772 16.6188ZM76.3254 15.8526L76.2183 15.7731C76.3091 15.728 76.4805 15.771 76.3411 15.8452L76.3254 15.8526ZM75.7709 16.1355C75.7643 16.1516 75.7541 16.166 75.7412 16.1776C75.7282 16.1892 75.7128 16.1977 75.6962 16.2024C75.6795 16.2072 75.662 16.2081 75.645 16.205C75.6279 16.202 75.6118 16.195 75.5979 16.1848C75.5362 16.1077 75.7622 15.9912 75.7709 16.1355ZM75.5761 16.2551C75.4972 16.3276 75.4415 16.3231 75.4132 16.2388C75.3849 16.1544 75.6591 16.1121 75.562 16.2379L75.5761 16.2551ZM74.9477 16.4513C75.0459 16.675 74.5739 16.8006 74.4187 16.6968C74.334 16.6114 74.8353 16.2282 74.9337 16.4341L74.9477 16.4513ZM72.4015 15.6365C72.3364 15.6941 72.2788 15.6821 72.2253 15.5996C72.2785 15.5145 72.3388 15.5307 72.3875 15.6193L72.4015 15.6365ZM67.8946 14.3362C67.8878 14.3523 67.8776 14.3667 67.8647 14.3783C67.8518 14.39 67.8365 14.3986 67.8199 14.4037C67.8033 14.4087 67.7858 14.41 67.7687 14.4074C67.7516 14.4049 67.7353 14.3986 67.7209 14.3889C67.6661 14.2955 67.8908 14.1858 67.8827 14.3088L67.8946 14.3362ZM67.6991 14.4592C67.6202 14.5318 67.5686 14.5245 67.5398 14.4258C67.5109 14.3271 67.7828 14.3128 67.685 14.442L67.6991 14.4592ZM67.7195 12.8244C67.7124 12.8405 67.7018 12.8548 67.6885 12.8663C67.6753 12.8778 67.6596 12.8862 67.6427 12.8909C67.6258 12.8955 67.6081 12.8963 67.5908 12.8932C67.5736 12.8901 67.5573 12.8832 67.5431 12.8729C67.4884 12.7795 67.7137 12.6664 67.7076 12.7969L67.7195 12.8244ZM67.5213 12.9432C67.4424 13.0158 67.3902 13.0119 67.3654 12.9105C67.3407 12.8091 67.6036 12.8036 67.5094 12.9157L67.5213 12.9432ZM66.8911 15.3946C66.8836 15.4099 66.8729 15.4234 66.8599 15.4343C66.8468 15.4452 66.8317 15.4532 66.8154 15.4578C66.7991 15.4625 66.782 15.4636 66.7652 15.4612C66.7485 15.4588 66.7324 15.4529 66.7181 15.4439C66.6593 15.3532 66.888 15.2407 66.8792 15.3672L66.8911 15.3946ZM66.6061 15.6912C66.5228 15.7344 66.3283 15.43 66.4027 15.3957C66.612 15.2578 66.8522 15.5468 66.5913 15.6775L66.6061 15.6912ZM66.7051 13.631C66.7321 13.6587 66.75 13.6941 66.7565 13.7324C66.763 13.7706 66.7578 13.81 66.7416 13.8453L66.6258 13.9422C66.5987 13.9213 66.578 13.8931 66.566 13.8609C66.554 13.8286 66.5512 13.7936 66.5579 13.7598C66.5646 13.726 66.5806 13.6948 66.604 13.6696C66.6274 13.6444 66.6573 13.6262 66.6903 13.6172L66.7051 13.631ZM66.6873 13.1925C66.74 13.3461 66.002 13.5087 65.9866 13.1598C65.9623 12.8875 66.6258 13.03 66.6725 13.1788L66.6873 13.1925ZM65.4278 12.6864L65.5308 12.7686C65.4368 12.7952 65.2631 12.7125 65.413 12.6727L65.4278 12.6864ZM63.8713 16.7398C63.9222 16.7504 64.1559 16.9348 64.1181 16.9803C64.028 17.0897 63.6197 16.9614 63.5488 16.8611C63.6867 16.726 63.718 16.6613 63.8667 16.7281L63.8713 16.7398ZM63.2859 15.4306C63.2859 15.4306 62.9828 15.5096 63.0611 15.1697C63.1147 15.1909 63.1626 15.2244 63.2008 15.2677C63.2391 15.311 63.2666 15.3628 63.2813 15.4189L63.2859 15.4306ZM62.6629 17.3918C62.6132 17.3421 62.6203 17.308 62.6843 17.2893C62.7539 17.3289 62.7426 17.3657 62.6583 17.3801L62.6629 17.3918ZM62.5514 15.7792L62.6793 15.7596C62.7602 15.8799 62.5956 15.8383 62.5467 15.7675L62.5514 15.7792ZM62.3652 14.8778C62.459 14.8513 62.5591 14.8608 62.6461 14.9046C62.8154 14.9579 62.7084 15.1137 62.6569 15.1741C62.4934 15.3465 62.2374 14.8796 62.3605 14.8662L62.3652 14.8778ZM60.5077 14.0683C60.5838 14.127 60.5141 14.426 60.3897 14.3109C60.2652 14.1957 60.3877 13.9826 60.503 14.0567L60.5077 14.0683ZM60.7551 17.4305C60.7365 17.5192 59.7456 17.1834 59.7335 17.0383C59.6677 16.6433 60.8368 17.0912 60.7505 17.4188L60.7551 17.4305ZM58.8127 13.6991C58.7502 13.7608 58.69 13.7446 58.6365 13.6622C58.6984 13.5861 58.7594 13.5988 58.8081 13.6874L58.8127 13.6991ZM58.6204 12.9283C58.6226 12.8934 58.6385 12.8607 58.6646 12.8375C58.6907 12.8142 58.7248 12.8023 58.7596 12.8043C59.041 12.9131 58.396 13.2733 58.4064 13.1223C58.4207 13.054 58.6014 13.0526 58.6293 12.9195L58.6204 12.9283ZM58.5089 12.4132C58.7036 12.5645 58.2874 12.8123 58.3605 12.514C58.3757 12.4245 58.4256 12.3887 58.5089 12.4132ZM55.2215 18.2456C55.2405 18.2631 55.2547 18.2854 55.2626 18.3101C55.2705 18.3349 55.2718 18.3613 55.2665 18.3868C55.2611 18.4123 55.2493 18.436 55.2321 18.4555C55.215 18.475 55.193 18.4897 55.1685 18.4982C55.1512 18.4798 55.1386 18.4574 55.1318 18.4331C55.1249 18.4087 55.1241 18.3829 55.1293 18.3581C55.1345 18.3333 55.1456 18.3101 55.1616 18.2905C55.1777 18.2709 55.1982 18.2555 55.2215 18.2456ZM55.1736 17.9505C55.1455 17.9737 55.1115 17.9884 55.0755 17.9929C55.0394 17.9973 55.0029 17.9913 54.9702 17.9756C54.8397 17.8556 55.1382 17.7649 55.175 17.9437L55.1736 17.9505ZM54.8326 16.8421C54.9641 16.8055 54.8605 17.1651 54.8668 17.1522L54.7625 17.2444C54.6868 17.1501 54.7012 16.8787 54.8341 16.8353L54.8326 16.8421ZM54.188 16.8461C54.2719 16.9349 54.1652 17.1406 54.1176 17.0808C54.0768 16.9547 54.0993 16.881 54.1894 16.8393L54.188 16.8461ZM53.8906 18.5191C53.839 18.5796 53.8093 18.5698 53.7957 18.4993C53.8516 18.4183 53.8814 18.4281 53.8921 18.5123L53.8906 18.5191ZM53.816 17.9298C53.8718 17.9843 53.8632 18.0252 53.7895 18.0561C53.7182 17.9913 53.7268 17.9503 53.816 17.9298ZM53.5381 19.4252C53.5117 19.5515 53.2809 19.4034 53.2905 19.3912C53.3074 19.3772 53.327 19.3669 53.348 19.3609C53.369 19.3548 53.391 19.3532 53.4126 19.3561C53.4342 19.3589 53.455 19.3662 53.4737 19.3775C53.4924 19.3888 53.5085 19.4038 53.5212 19.4217L53.5381 19.4252ZM53.0525 17.9944C53.0174 18.1617 52.7701 17.9745 52.7508 17.9312C52.7979 17.9063 52.852 17.8987 52.904 17.9095C52.9559 17.9204 53.0024 17.9492 53.0355 17.9909L53.0525 17.9944ZM51.8206 19.7212C51.8783 19.8508 51.844 19.8793 51.7035 19.8071C51.7003 19.7209 51.7387 19.6898 51.8036 19.7176L51.8206 19.7212ZM51.1126 18.3043C51.1733 18.2331 51.2292 18.1579 51.28 18.0793C51.6278 17.9561 51.3869 18.5827 51.3862 18.5861C51.4152 18.667 52.11 19.3863 51.4529 19.4161C51.5139 19.2935 51.4979 19.201 51.398 19.1374C51.3019 19.1742 50.934 19.6638 50.7179 19.2265C50.6892 19.1777 50.8475 18.8439 50.8003 18.6808C50.6957 18.5236 50.5675 18.3837 50.4202 18.2662C50.4522 18.2415 50.4908 18.227 50.5311 18.2246C50.5713 18.2222 50.6113 18.2321 50.6458 18.2529C50.9075 18.3041 50.8245 18.0587 51.0957 18.3008L51.1126 18.3043ZM51.4302 19.4399C51.4116 19.5286 51.3766 19.5605 51.3042 19.5346C51.2271 19.3795 51.2688 19.349 51.4147 19.4295L51.4302 19.4399ZM50.735 20.5129C50.8574 20.4352 50.948 20.4755 51.0021 20.6223C51.0211 20.9541 50.6434 20.6291 50.735 20.5129ZM50.187 20.8827C50.2033 20.8877 50.2182 20.8961 50.2309 20.9074C50.2436 20.9188 50.2537 20.9327 50.2605 20.9484C50.2673 20.964 50.2706 20.981 50.2703 20.9981C50.27 21.0151 50.266 21.032 50.2587 21.0474C50.3217 21.7091 49.9706 20.9871 50.1849 20.893L50.187 20.8827ZM50.0671 20.4585C50.1114 20.45 50.254 20.1912 50.3479 20.4354C50.5227 20.9352 49.9662 20.5015 50.065 20.4688L50.0671 20.4585ZM50.2845 15.5867C50.3129 15.5356 50.4167 15.479 50.4634 15.56C50.4634 15.56 50.6886 16.1738 50.5337 15.9845C50.3788 15.7953 50.2249 15.7025 50.2845 15.5867ZM49.066 15.1213C49.1085 15.0874 49.3267 15.3291 49.4271 15.2717C49.7449 15.0888 49.7947 14.9354 50.0914 15.3431C50.1509 15.4793 50.191 15.6232 50.2106 15.7708C50.234 16.0244 50.3146 16.2692 50.4463 16.4865C50.8289 16.9229 50.6293 16.5248 50.9664 16.5028C51.0724 16.5036 50.9109 17.9164 50.8667 18.1103C50.3414 18.068 50.5462 17.2592 50.4337 17.0361C50.3213 16.813 50.0238 16.9325 49.8316 16.8031C49.8234 16.8085 48.864 15.2749 49.066 15.1213ZM50.0258 18.1729C49.9444 18.2913 49.7893 18.0521 49.7283 18.0394L49.6208 17.9278C49.6618 17.8921 49.7131 17.8707 49.767 17.8669C49.821 17.8631 49.8746 17.877 49.9199 17.9066C49.9652 17.9362 49.9997 17.9799 50.0182 18.031C50.0366 18.0821 50.0381 18.1379 50.0222 18.19L50.0258 18.1729ZM50.1246 16.975C50.1757 17.0799 50.2058 17.194 50.2135 17.3107C50.0176 17.2661 49.77 16.9791 50.1246 16.975ZM49.5689 18.936C49.6837 19.0634 49.9138 19.0795 49.989 19.2271C49.9567 19.4606 49.883 19.6866 49.7715 19.8942C49.2274 19.823 49.4226 18.8911 49.194 18.5974C49.1749 18.5505 49.1652 18.5003 49.1655 18.4496C49.1658 18.3989 49.1761 18.3487 49.1958 18.302C49.4905 18.3138 49.4383 18.816 49.5621 18.9346L49.5689 18.936ZM50.2235 17.3306C50.43 17.324 50.4594 17.4371 50.3056 17.665C50.1317 17.6 50.1799 17.4712 50.2167 17.3292L50.2235 17.3306ZM50.3189 17.6856C50.6917 17.7636 50.2813 18.034 50.276 17.8904C50.3005 17.8242 50.3148 17.756 50.3291 17.6877L50.3189 17.6856ZM49.1845 18.2711C49.093 18.2519 49.0772 18.2094 49.0817 18.1035C49.1737 18.137 49.1883 18.1686 49.1778 18.2697L49.1845 18.2711ZM48.9544 18.002C48.9118 17.9652 48.8779 17.9193 48.8551 17.8677C48.8323 17.8161 48.8211 17.76 48.8223 17.7035C49.1987 17.7645 49.0144 18.1036 48.9544 18.002ZM40.2667 22.8636C40.4084 23.0145 39.7955 23.4241 39.7515 23.2795C39.7075 23.1349 40.1055 22.6873 40.2667 22.8636ZM37.0713 24.8276C37.0505 24.9266 37.0075 24.9461 36.903 24.9385C36.9305 24.8409 36.9593 24.822 37.0713 24.8276ZM36.5971 24.8958L36.8886 24.9569C36.8707 25.0422 36.464 25.4131 36.3736 25.2873C36.2832 25.1615 36.4418 24.8775 36.5971 24.8958ZM35.0416 25.8029C34.9922 25.8532 34.7465 26.0974 34.7355 25.9134C34.7245 25.7294 34.9431 25.6148 35.0416 25.8029ZM32.0614 30.709C32.1546 30.7535 32.1494 30.7952 32.0567 30.8327C31.9682 30.7821 31.97 30.7398 32.0614 30.709ZM31.5922 31.1417C32.0011 31.0812 31.619 31.5036 31.619 31.5036C31.619 31.5036 31.1664 31.1986 31.5922 31.1417ZM50.5331 21.2403C50.3788 21.2507 50.3569 21.2034 50.4611 21.1112C50.5289 21.1254 50.557 21.1598 50.5331 21.2403C50.8278 21.1167 51.1231 21.0075 51.4219 20.8813C51.3758 20.8456 51.3394 20.7987 51.316 20.7451C51.2488 20.6098 51.4193 19.8295 51.6612 19.8232C51.5547 20.3318 51.584 20.1919 51.8569 20.2739C51.9755 20.2988 51.8339 19.8772 51.8389 19.8533C51.9068 19.8878 51.9815 19.9066 52.0576 19.9083C52.1337 19.9101 52.2093 19.8948 52.2789 19.8635C52.2201 19.7872 52.1526 19.7181 52.078 19.6575L52.1813 19.5865C52.4462 19.5885 52.7273 19.5975 52.8722 19.9022C52.9135 19.9646 52.9383 20.0366 52.9443 20.1114C52.9502 20.1862 52.9372 20.2614 52.9065 20.3299C53.0524 20.2749 53.2017 20.2207 53.3496 20.1732C53.3546 20.1651 53.3566 20.1554 53.3553 20.1459C53.3238 20.0431 53.2248 20.026 53.1772 19.8984C53.1013 19.6865 53.5028 19.8134 53.544 19.8362C53.6098 19.9012 53.6575 19.9824 53.6822 20.0719L54.0611 19.9517C53.7046 19.7452 53.9184 18.7245 54.3176 19.5208C54.3595 19.6079 54.2611 19.7905 54.1865 19.9102C56.006 19.3167 57.8582 18.8313 59.7336 18.4566C59.7025 18.4427 59.6754 18.4211 59.6548 18.3937C59.7298 18.3061 59.8031 18.3108 59.874 18.4111C59.8668 18.4203 59.858 18.4281 59.848 18.4342C72.2444 15.9813 85.7362 18.3652 97.3937 27.1423C97.4739 27.0551 97.5671 26.9808 97.6698 26.9222C97.6243 26.8521 97.5864 26.78 97.5436 26.714C97.747 26.0974 98.0971 27.1115 98.1252 27.2136C97.956 27.2276 97.7893 27.2633 97.629 27.3199L97.8964 27.5291C97.9072 27.5045 97.9204 27.481 97.9359 27.459C97.9675 27.4264 98.1544 27.5475 98.1067 27.6907C98.6787 28.1348 99.2404 28.5945 99.8027 29.0686C103.344 32.0725 106.423 35.5896 108.937 39.5052C108.949 39.3775 108.968 39.2507 108.995 39.1254C109.023 38.9957 109.105 39.5653 109.146 39.8268C113.115 46.1454 115.559 53.3149 116.283 60.763L97.3758 56.8031C95.7296 51.4112 92.5745 46.6149 88.2876 42.9875C81.4202 37.1485 73.365 35.1051 65.7659 35.9687C65.7015 36.1582 65.6249 36.3433 65.5366 36.5228C65.604 36.3196 65.4214 36.178 65.4 36.0096L64.7409 36.0996C64.7345 36.1374 64.7197 36.1733 64.6977 36.2046C64.7217 36.2556 64.733 36.3118 64.7306 36.3683C64.7022 36.357 64.677 36.3388 64.6573 36.3154C64.6375 36.292 64.6237 36.2641 64.6172 36.2341C64.6516 36.1878 64.6734 36.1853 64.6889 36.1956C64.6969 36.1653 64.7034 36.1345 64.7082 36.1035L64.6777 36.0971C64.6589 36.0914 64.6396 36.0874 64.6201 36.085C57.5443 37.1724 51.0552 40.6958 46.2593 46.0544L26.7629 41.9711C32.2104 32.6213 40.566 25.3341 50.5331 21.2403ZM94.9048 53.1463C94.7799 53.0513 94.6767 52.9305 94.602 52.792C94.5273 52.6534 94.4829 52.5003 94.4717 52.3429C94.315 52.0607 94.1501 51.7839 93.986 51.5036C93.932 51.5068 93.8782 51.4973 93.8286 51.4758C93.7791 51.4542 93.7352 51.4213 93.7006 51.3797C93.7088 51.3474 93.7256 51.318 93.7492 51.2947C93.7728 51.2714 93.8023 51.255 93.8345 51.2474L93.986 51.5036C94.1918 51.5004 94.3924 51.4212 94.4134 51.8105C94.4235 51.9889 94.443 52.1666 94.4717 52.3429C94.617 52.6121 94.7526 52.8935 94.9048 53.1463ZM93.5494 50.7672C93.419 50.7648 93.0493 50.3346 93.1281 50.2621C93.1536 50.2369 93.1868 50.2212 93.2223 50.2177C93.3291 50.4004 93.4325 50.5824 93.546 50.7665L93.5494 50.7672ZM92.1509 49.5906C92.2763 49.6169 93.0629 50.0667 92.7307 50.2002C92.3985 50.3337 91.6927 49.4982 92.1475 49.5899L92.1509 49.5906ZM91.9159 48.1624C92.0422 48.3528 92.1638 48.5493 92.2861 48.7423C92.3932 48.8606 92.476 48.999 92.5298 49.1497L92.2624 48.7374C92.2314 48.7166 91.4789 48.4414 91.9125 48.1617L91.9159 48.1624ZM92.6687 49.7703C92.4314 49.7206 92.6219 49.3009 92.612 49.2809C92.602 49.261 92.5686 49.2006 92.554 49.169C92.6804 49.3594 92.8034 49.5491 92.9196 49.7374C92.8763 49.7924 92.8081 49.8138 92.6653 49.7696L92.6687 49.7703ZM91.007 48.9377C90.9227 48.8844 90.9266 48.8318 91.0073 48.7845C91.0815 48.8357 91.0782 48.8849 91.0037 48.937L91.007 48.9377ZM65.2236 37.2911C65.2439 37.2953 65.3164 37.2535 65.3435 37.2592C65.3306 37.3206 65.1056 37.922 65.0954 37.9199C64.9173 37.8078 64.8108 37.8603 64.6867 37.6419C64.7695 37.7198 64.9158 37.0378 64.8204 37.0035C64.9166 36.9667 65.0629 36.9438 65.1342 36.8733C65.2565 36.7457 64.969 36.632 65.2605 36.6253C65.3011 36.6339 65.5012 36.861 65.5012 36.861C65.5152 37.0136 65.1432 37.1852 65.2236 37.2911ZM65.017 38.1422C64.973 38.133 64.9287 37.8885 65.0528 37.9715C65.0872 37.993 65.0329 38.117 65.017 38.1422ZM64.7265 38.1277C64.7265 38.1277 64.8235 38.0696 64.8809 38.3026C64.8897 38.4968 64.6803 38.061 64.7265 38.1277ZM65.4151 36.2586C65.5801 36.3324 65.374 36.3534 65.3405 36.3107C65.307 36.2681 65.3826 36.2447 65.4151 36.2586ZM64.5076 37.8217C64.4983 37.8661 64.489 37.9105 64.4797 37.9548C64.4183 37.9259 64.351 37.9118 64.2831 37.9137C64.2862 37.8145 64.4642 37.7414 64.5076 37.8217ZM64.481 36.4621C64.4437 36.4543 64.7889 36.4446 64.7043 36.6122C64.5998 36.8576 64.4749 36.4573 64.481 36.4621ZM52.0179 43.4727C51.9908 43.4671 51.5993 43.4955 51.7245 43.3365C51.8498 43.1774 52.0265 43.3641 52.0037 43.4733L52.0179 43.4727ZM26.1274 40.124C26.2207 40.1685 26.2196 40.2075 26.1261 40.2485C26.043 40.2061 26.0482 40.1645 26.1274 40.124ZM17.3789 71.4056C17.4019 71.4045 17.4247 71.4087 17.4459 71.4176C17.4671 71.4265 17.486 71.4401 17.5013 71.4572C17.5166 71.4744 17.528 71.4948 17.5346 71.5169C17.5412 71.5391 17.5428 71.5624 17.5394 71.5853C17.597 71.5973 17.58 71.5938 17.5394 71.5853C17.4217 71.5392 17.0664 71.4114 17.3789 71.4056ZM17.8144 71.7248C17.82 71.8329 17.5493 71.8083 17.5547 71.6134C17.6041 71.5972 17.6577 71.5995 17.7055 71.62C17.7532 71.6405 17.7919 71.6777 17.8144 71.7248ZM17.8058 72.1542C17.7179 72.1576 17.6303 72.1432 17.5482 72.1119C17.466 72.0806 17.391 72.0331 17.3275 71.972C17.5187 71.8696 18.0188 72.1168 17.8058 72.1542ZM17.347 73.4834C17.395 73.44 17.4289 73.4471 17.4453 73.504C17.3983 73.5761 17.3618 73.5649 17.347 73.4834ZM17.6193 72.7743C17.4948 72.7269 17.1367 72.6127 17.454 72.6008C17.4768 72.5992 17.4996 72.6026 17.5209 72.6109C17.5422 72.6191 17.5614 72.632 17.5771 72.6485C17.5929 72.6651 17.6048 72.6849 17.6121 72.7067C17.6194 72.7284 17.6219 72.7515 17.6193 72.7743C17.6803 72.7871 17.66 72.7829 17.6193 72.7743ZM18.1598 73.3187C18.088 73.4248 17.588 72.9745 17.6422 72.8005C17.784 72.8159 18.304 73.103 18.1598 73.3187ZM18.9302 72.5286C18.8635 72.4755 18.8726 72.4489 18.9495 72.4365C19.0101 72.4848 19.0037 72.5155 18.9234 72.5272L18.9302 72.5286ZM34.028 101.6C33.899 101.59 33.3933 101.759 33.3309 101.55C33.2686 101.341 33.7678 101.153 33.9174 101.199C34.067 101.244 34.3252 101.633 34.028 101.6ZM34.7528 105.436L34.1021 105.3C33.9721 105.126 33.9287 104.861 33.7863 104.645C33.9822 104.487 34.2479 104.806 34.4129 104.609C34.3263 104.381 33.9068 104.425 33.926 104.08C33.9434 103.845 34.2356 103.834 34.376 103.721C34.5922 103.538 34.8273 103.378 35.0773 103.245L34.7791 104.668L35.5755 104.835C35.3328 105.076 35.0554 105.278 34.7528 105.436ZM35.7152 105.637C35.5453 105.52 35.4171 105.372 35.563 105.249C35.7825 105.046 36.3537 105.443 36.2405 105.747L35.7152 105.637ZM36.2914 105.555C36.216 105.493 36.242 105.47 36.3594 105.484C36.4312 105.546 36.4085 105.57 36.2914 105.555ZM37.4322 105.919C37.4291 105.944 37.4238 105.969 37.4164 105.994L36.4743 105.796C36.5044 105.653 36.5315 105.523 36.6707 105.535C36.5552 105.208 36.1793 105.432 36.5943 105.241C36.7488 105.174 36.916 105.144 37.0836 105.151L37.5885 105.257C37.604 105.47 37.7365 106.307 37.4322 105.919ZM38.3375 105.802C38.3647 105.672 38.6135 105.717 38.5214 105.819C38.4293 105.921 38.3705 105.898 38.3375 105.802ZM37.6361 110.586C37.6361 110.586 37.6003 110.757 37.5427 110.745C37.397 110.715 37.6028 110.323 37.6561 110.356C37.7095 110.388 37.6216 110.537 37.6361 110.586ZM38.6279 105.766C38.3525 105.798 38.7595 105.459 38.7416 105.68L38.6279 105.766ZM38.156 110.688C38.0724 110.74 37.9773 110.771 37.8793 110.776C37.8522 110.635 37.6305 110.275 38.102 110.271C38.102 110.271 38.1091 110.237 38.1198 110.185C38.1306 110.134 38.2365 110.067 38.2181 110.206C38.2124 110.233 38.103 110.299 38.085 110.267C38.0944 110.34 37.8939 110.487 37.9097 110.53C37.9256 110.572 38.4349 110.387 38.156 110.688ZM38.272 109.797C38.2966 109.781 38.4727 109.768 38.4685 109.838C38.4772 109.982 38.1651 109.885 38.272 109.797ZM38.2885 110.68C38.3198 110.662 38.3472 110.638 38.3691 110.609C38.3909 110.579 38.4069 110.546 38.416 110.511C38.3759 110.496 38.3335 110.487 38.2906 110.485C38.1736 110.368 38.5955 110.363 38.5601 110.431C38.7012 110.197 38.708 110.586 38.7046 110.586C38.5693 110.639 38.4266 110.67 38.2818 110.679L38.2885 110.68ZM39.863 106.136C39.846 106.098 39.8173 106.067 39.7813 106.047C39.7452 106.028 39.7038 106.02 39.6631 106.026C39.5692 105.714 39.3515 106.078 39.4152 105.639L40.4556 105.857C40.4276 105.872 40.4029 105.892 40.3829 105.917C40.2803 106.052 40.3064 106.417 40.1484 106.58L39.7655 106.5C39.7316 106.425 39.704 106.337 39.6833 106.301C39.8011 106.279 39.8648 106.229 39.863 106.136ZM39.0015 109.793C38.9609 109.784 38.965 109.714 38.985 109.686C39.005 109.658 39.1515 109.414 39.3038 109.532C39.2612 109.603 39.2359 109.683 39.2301 109.766C39.1543 109.768 39.079 109.777 39.0049 109.794L39.0015 109.793ZM40.3874 110.101C40.1373 110.265 39.8503 110.363 39.553 110.386C39.3129 110.417 39.2567 110.466 39.1392 110.402C39.075 110.371 38.9725 110.168 39.0544 110.132C39.0784 110.138 39.1001 110.151 39.1164 110.17C39.1327 110.188 39.1429 110.212 39.1457 110.236C39.3709 110.006 39.3243 110.431 39.3953 110.396C39.6002 110.296 39.555 109.802 39.3824 109.68C39.1586 109.516 39.471 109.528 39.5357 109.506C39.6005 109.484 39.534 109.413 39.653 109.402C39.8569 109.391 39.6448 109.66 39.8105 109.731C40.1807 109.281 39.7623 110.18 39.9752 110.161C40.0158 110.169 40.0424 109.84 40.1526 109.955C40.1584 109.978 40.4347 110.061 40.3874 110.101ZM39.3427 109.903C39.3663 109.926 39.2597 110.182 39.2353 110.045C39.225 109.993 39.2454 109.794 39.3427 109.903ZM40.5689 106.127C40.738 105.995 40.762 106.37 40.5636 106.439C40.5425 106.419 40.5258 106.394 40.5146 106.367C40.5034 106.34 40.4978 106.311 40.4983 106.282C40.4988 106.252 40.5053 106.224 40.5175 106.197C40.5296 106.17 40.5471 106.146 40.5689 106.127ZM40.3171 109.744C39.9318 109.76 40.351 109.43 40.192 109.362C40.1446 109.352 40.3486 109.138 40.4755 109.343C40.6024 109.547 40.6011 109.739 40.3171 109.744ZM40.6923 109.979C40.6844 109.962 40.6799 109.944 40.6792 109.925C40.6784 109.906 40.6815 109.888 40.6882 109.87C40.6948 109.853 40.7049 109.837 40.7179 109.823C40.7308 109.809 40.7464 109.799 40.7636 109.791C40.8688 109.863 40.7266 110.019 40.6909 109.986L40.6923 109.979ZM40.7759 110.104C40.7667 110.013 41.1176 109.908 41.1592 109.828C41.1499 109.872 41.0836 109.648 41.0616 109.551L41.0673 109.523C41.0359 109.403 40.9922 109.426 40.9109 109.409C41.182 109.466 40.6972 109.77 40.7258 109.634C40.7306 109.573 40.7493 109.514 40.7806 109.462C40.8119 109.41 40.8548 109.366 40.9059 109.333C40.9571 109.301 41.015 109.281 41.0752 109.275C41.1353 109.269 41.196 109.277 41.2524 109.299C41.3054 109.311 41.3529 109.341 41.3879 109.383C41.423 109.425 41.4438 109.477 41.4473 109.532C41.4508 109.587 41.4369 109.641 41.4075 109.688C41.3781 109.734 41.3348 109.77 41.2839 109.79C41.5374 109.747 41.7952 109.736 42.0511 109.758C41.8243 110.013 41.096 110.028 40.7759 110.104ZM42.0699 109.263C42.1783 109.286 42.0953 109.429 42.0506 109.355C42.0058 109.282 42.0205 109.246 42.0699 109.263ZM42.6607 109.668C42.7166 109.587 42.534 109.31 42.6999 109.295C42.772 109.289 42.8345 109.48 42.8704 109.495C42.7877 109.602 42.8285 109.661 42.6571 109.685L42.6607 109.668ZM42.7808 109.095C42.8689 109.113 42.7529 109.228 42.7055 109.218C42.658 109.208 42.7646 109.088 42.7876 109.096L42.7808 109.095ZM43.6709 108.747C43.6054 108.772 43.413 108.981 43.3697 108.901C43.2571 108.696 43.7439 108.584 43.7494 108.574C43.755 108.565 43.6818 108.745 43.6777 108.748L43.6709 108.747ZM43.74 109.413C43.7479 109.376 43.7891 109.331 43.8367 109.323C43.9721 109.369 43.7671 109.419 43.7468 109.415L43.74 109.413ZM44.9779 108.215C44.9558 108.205 44.9381 108.187 44.9279 108.164C44.9177 108.142 44.9156 108.117 44.9221 108.093L45.0645 108.055C45.0711 108.074 44.9576 108.211 44.9847 108.217L44.9779 108.215ZM45.1003 108.07C45.1749 108.085 45.2141 108.489 45.1719 108.505C45.1296 108.521 45.0541 108.206 45.0651 108.187C45.0762 108.168 45.0483 108.048 45.1093 108.061L45.1003 108.07ZM44.9247 109.145C44.9304 108.729 45.3716 108.7 45.6109 108.807C45.6579 109.124 45.1998 109.081 44.9315 109.146L44.9247 109.145ZM45.4929 108.526C45.547 108.876 45.1541 108.252 45.2483 108.343C45.2288 108.318 45.4261 108.035 45.4997 108.528L45.4929 108.526ZM45.8179 111.687L45.7203 111.596C45.7445 111.579 45.7716 111.568 45.8001 111.562C45.8286 111.557 45.858 111.557 45.8864 111.563C45.9148 111.569 45.9417 111.58 45.9655 111.597C45.9894 111.614 46.0097 111.635 46.0253 111.659C45.9962 111.679 45.963 111.692 45.9283 111.697C45.8935 111.702 45.8581 111.699 45.8247 111.689L45.8179 111.687ZM46.062 110.235C46.0813 110.142 46.3012 110.156 46.324 110.25C46.3468 110.344 46.1103 110.291 46.0687 110.236L46.062 110.235ZM62.9901 114.318C62.976 114.297 62.9669 114.274 62.9634 114.249C62.9599 114.224 62.9621 114.199 62.9698 114.175C62.9776 114.151 62.9906 114.129 63.008 114.111C63.0254 114.093 63.0466 114.08 63.0701 114.071C63.1041 114.128 63.0626 114.394 62.9901 114.318ZM88.1059 115.167C88.1202 115.099 88.133 115.037 88.1704 114.977C88.339 114.899 88.1388 115.398 88.0923 115.164L88.1059 115.167ZM91.9552 109C91.9275 108.979 91.9051 108.952 91.8898 108.921C91.8745 108.89 91.8667 108.856 91.867 108.821C91.8674 108.787 91.8759 108.753 91.8919 108.722C91.9078 108.691 91.9308 108.664 91.9589 108.644C91.986 108.666 92.0076 108.693 92.0218 108.724C92.0361 108.756 92.0427 108.79 92.041 108.825C92.0393 108.859 92.0294 108.893 92.0121 108.923C91.9948 108.953 91.9707 108.978 91.9416 108.997L91.9552 109ZM92.6387 110.804C92.6184 110.799 92.3513 110.487 92.5746 110.501C92.7979 110.516 92.6364 110.832 92.6286 110.801L92.6387 110.804ZM93.2839 109.513C93.1738 109.262 93.5503 109.052 93.6943 109.243C93.7145 109.265 93.421 109.856 93.2745 109.508L93.2839 109.513ZM93.888 112.22C93.6823 111.952 93.8322 110.932 93.8443 110.942C94.0317 111.145 94.1796 112.01 93.888 112.22ZM95.265 110.324C95.2092 110.269 95.2197 110.236 95.2872 110.218C95.3457 110.277 95.3344 110.313 95.2643 110.327L95.265 110.324ZM95.1299 112.658C95.0723 112.578 95.1907 112.368 95.2213 112.424C95.252 112.48 95.1909 112.738 95.1393 112.663L95.1299 112.658ZM95.2425 112.863C95.0462 112.737 95.4624 112.624 95.442 112.823C95.417 112.846 95.3862 112.862 95.353 112.869C95.3198 112.876 95.2854 112.873 95.2534 112.862L95.2425 112.863ZM96.0129 107.851C94.9449 107.477 96.5793 106.954 96.6018 108.045C96.3458 108.102 96.2524 107.94 96.0224 107.856L96.0129 107.851ZM96.686 105.262C96.7311 105.165 96.7698 105.166 96.8055 105.266C96.7789 105.342 96.7382 105.334 96.6954 105.268L96.686 105.262ZM95.8404 113.117C95.7025 113.049 95.7639 112.181 95.8413 112.048C95.9738 111.855 96.1087 112.46 96.0873 112.563C96.0491 112.764 95.9681 112.955 95.8498 113.122L95.8404 113.117ZM97.2864 105.267C97.3307 105.055 97.5954 105.21 97.5267 105.285C97.4579 105.36 97.3484 105.376 97.2958 105.272L97.2864 105.267ZM99.0629 103.946C99.0557 103.98 98.6689 104.662 98.5905 104.428C98.5121 104.194 98.8153 103.912 98.8669 103.716C98.971 103.574 99.0689 103.563 99.1689 103.676C99.1917 103.726 99.1943 103.782 99.1762 103.834C99.1582 103.885 99.1209 103.927 99.0723 103.952L99.0629 103.946ZM99.5874 106.272C99.6067 106.18 99.6454 106.181 99.7069 106.276C99.676 106.373 99.6339 106.371 99.5947 106.288L99.5874 106.272ZM100.728 105.895C100.418 106.14 99.7054 106.554 99.9385 105.762C100.065 105.343 100.278 105.476 100.361 105.433C100.266 105.278 100.141 104.995 100.44 105.058L100.494 105.069C100.494 105.01 100.506 104.952 100.53 104.898C100.712 104.466 100.933 104.983 100.842 104.201C100.828 104.141 100.8 104.085 100.759 104.038C100.759 104.038 100.729 104.067 100.694 104.078C100.649 104.025 100.656 103.991 100.717 103.972C100.57 103.777 100.371 103.543 100.504 103.418C100.492 103.472 100.968 103.43 100.971 103.402C101.127 103.484 101.062 104.436 101.18 104.632C101.474 105.121 101.094 105.615 100.727 105.898L100.728 105.895ZM101.496 103.07L101.59 102.975C101.7 102.977 101.597 103.28 101.517 103.206C101.512 103.166 101.503 103.125 101.496 103.073L101.496 103.07ZM102.256 100.542C102.219 100.951 101.752 101.256 101.368 101.404C101.127 101.624 100.882 101.847 100.635 102.066C100.624 102.101 100.617 102.136 100.612 102.172C100.6 102.158 100.593 102.14 100.591 102.121C99.0842 103.452 97.4903 104.68 95.8204 105.797C95.8233 105.839 95.8164 105.881 95.8003 105.92C95.7842 105.958 95.7594 105.993 95.7277 106.02C95.6814 106.039 95.6664 105.975 95.6686 105.897C91.9928 108.319 87.9951 110.202 83.7956 111.492C81.2213 112.288 78.5912 112.887 75.928 113.283L76.0059 113.299C75.8116 113.501 75.6965 113.662 75.7644 113.726C76.4315 113.463 75.7599 113.9 76.0101 114.073L73.5836 113.565C64.2835 114.543 54.9051 112.876 46.5135 108.754C46.3047 108.653 46.0939 108.545 45.8729 108.435C45.8593 108.5 45.8479 108.554 45.8112 108.561C45.7744 108.567 45.732 108.466 45.6932 108.347C44.9311 107.949 44.1828 107.536 43.4463 107.1C43.4391 107.134 43.4277 107.189 43.3829 107.25L43.1491 107.201C43.201 107.137 43.2323 107.057 43.2391 106.974L43.0946 106.887C42.9173 106.889 42.8777 106.842 42.9111 106.767C42.0977 106.276 41.3009 105.756 40.5227 105.215C40.4128 105.267 40.2648 105.129 40.2124 105.008C38.0129 103.455 35.9527 101.712 34.055 99.7986C34.0351 99.8549 34.0027 99.9059 33.9602 99.9476C33.9177 99.9894 33.8663 100.021 33.81 100.039C33.7113 100.054 33.5756 99.5877 33.5361 99.2695L33.2868 99.007L33.2811 99.0343C33.2668 99.074 33.2412 99.1085 33.2077 99.1338C33.1741 99.159 33.1339 99.1739 33.0922 99.1765C33.0588 99.2063 33.0185 99.227 32.9749 99.2366C32.9314 99.2462 32.8862 99.2444 32.8437 99.2313C32.8665 99.1221 33.0349 98.8759 33.1597 98.8878C26.3699 91.6646 21.7756 82.1504 20.7023 70.9079L20.7095 70.8738L39.9958 74.9131C40.153 75.4627 40.3301 76.0023 40.5195 76.5337L40.6754 76.5663L40.6196 76.8326C40.9389 77.6952 41.2927 78.5343 41.6808 79.3496C41.7774 79.1553 41.8919 78.9705 42.0229 78.7976C42.1928 79.0501 42.3786 79.2913 42.5791 79.5199C42.8643 79.7985 43.0951 80.1284 43.2597 80.4927C43.4842 81.1099 43.6199 81.7797 43.8239 82.4103C43.6624 82.5226 43.5466 82.5518 43.4478 82.5169C44.4736 84.106 45.6523 85.5893 46.967 86.9455C47.1791 86.3379 47.4572 85.6692 47.7036 85.0331C47.4673 85.6772 47.2284 86.3221 46.9871 86.9676C48.6589 88.685 50.533 90.1904 52.568 91.4503C52.7452 91.3306 53.2221 91.4519 53.0304 91.6576C53.0172 91.6773 52.998 91.692 52.9757 91.6996C60.2096 96.0083 69.3386 97.2825 78.2863 94.5064C83.4785 92.9342 88.1143 89.8891 91.6379 85.7363L110.46 89.6784C108.277 93.6907 105.512 97.3535 102.255 100.546L102.256 100.542ZM41.4125 76.881C41.4846 76.9425 41.4619 76.9662 41.3404 76.955C41.2514 76.8901 41.2741 76.8663 41.3949 76.8809L41.4125 76.881ZM66.1406 94.293C66.1299 94.3442 66.1191 94.3954 66.1091 94.4432L65.9871 94.4176C65.9736 94.3471 66.0007 94.285 66.1406 94.293ZM66.3671 94.0054C66.3578 94.0498 66.3492 94.0908 66.3399 94.1352C66.3404 94.1582 66.3353 94.181 66.3252 94.2017C66.315 94.2223 66.3001 94.2402 66.2816 94.2539C66.2631 94.2675 66.2416 94.2764 66.219 94.2799C66.1964 94.2834 66.1733 94.2813 66.1517 94.2739C66.1879 94.1176 66.1851 93.9958 66.3714 93.985L66.3671 94.0054ZM66.5978 93.6974C66.5885 93.7418 66.5793 93.7862 66.57 93.8306C66.5464 93.9432 66.4943 93.9893 66.3817 93.9693C66.4117 93.8259 66.4225 93.707 66.6005 93.7016L66.5978 93.6974ZM69.4372 95.1224C69.4599 95.0854 69.4907 95.054 69.5272 95.0308C69.5704 95.0608 69.6001 95.1066 69.6101 95.1586L69.4372 95.1224ZM85.244 88.5982C85.4836 88.7251 85.7336 88.8311 85.9913 88.9151C85.9951 89.0656 85.8452 89.2408 85.7661 89.4666C85.5173 90.1307 84.3929 88.6587 85.2433 88.6017L85.244 88.5982ZM87.2739 89.4795C87.2078 89.5084 87.196 89.1425 87.3092 89.0914C87.4225 89.0403 87.345 89.4445 87.2732 89.4829L87.2739 89.4795ZM87.1821 89.8166C87.121 89.7539 87.1322 89.7171 87.2071 89.6971C87.262 89.7728 87.2549 89.8069 87.1785 89.8337L87.1821 89.8166ZM110.795 90.2403C110.558 90.2727 110.728 89.9341 110.841 89.7333L111.068 89.7808C111.052 90.0091 110.963 90.2327 110.792 90.2574L110.795 90.2403ZM120.372 88.9037L91.827 82.9252C91.8427 82.8716 91.8542 82.8168 91.8613 82.7613L91.8151 82.627C91.7165 82.5742 91.6249 82.6905 91.5525 82.8677L12.7704 66.3675L17.6749 42.9504L125.276 65.4866L120.372 88.9037Z" fill="#485261"/>
<path d="M24.6258 50.9044L22.3743 61.5786L20.1175 61.1026L21.9171 52.5705L21.8546 52.5573L19.0869 53.5741L19.5091 51.5727L22.5045 50.457L24.6258 50.9044ZM25.1455 60.2033L25.5203 58.426L31.4574 52.3454L32.9898 52.6686L32.4709 55.1286L31.564 54.9374L27.817 58.7907L27.7994 58.8741L34.132 60.2098L33.7505 62.0183L25.1455 60.2033ZM29.8731 63.1603L30.3832 60.7419L30.5909 59.9637L32.1663 52.4949L34.2824 52.9412L32.0309 63.6154L29.8731 63.1603ZM42.1019 65.7396L38.3179 64.9415L40.5694 54.2673L44.3846 55.072C45.4582 55.2984 46.3374 55.7071 47.0222 56.2979C47.7076 56.8853 48.1749 57.6208 48.424 58.5044C48.6766 59.3888 48.686 60.3852 48.4522 61.4936C48.2177 62.6055 47.8059 63.5167 47.2169 64.2272C46.6314 64.9384 45.9027 65.4253 45.0307 65.6878C44.1623 65.951 43.186 65.9683 42.1019 65.7396ZM40.9826 63.4839L42.4159 63.7862C43.083 63.9269 43.6691 63.9271 44.1741 63.7868C44.6834 63.6438 45.1054 63.3463 45.4403 62.8943C45.7794 62.4396 46.0328 61.8144 46.2006 61.0187C46.367 60.23 46.3865 59.5608 46.2593 59.0114C46.1355 58.4627 45.8709 58.0222 45.4656 57.6899C45.0602 57.3576 44.524 57.1211 43.8568 56.9804L42.4183 56.6769L40.9826 63.4839ZM50.2339 67.4549L47.8155 66.9448L53.7519 57.0478L56.6602 57.6612L58.0885 69.1116L55.6701 68.6015L54.7333 59.8025L54.6499 59.7849L50.2339 67.4549ZM50.9677 63.2273L56.6801 64.4322L56.3086 66.1938L50.5962 64.989L50.9677 63.2273ZM59.9099 58.3466L62.4377 58.8798L63.9021 63.9902L64.0064 64.0122L67.41 59.9286L69.9378 60.4618L64.5889 66.5413L63.793 70.3148L61.5518 69.8421L62.3478 66.0686L59.9099 58.3466ZM76.3135 65.013C76.3605 64.5838 76.2505 64.2194 75.9834 63.9199C75.7163 63.6204 75.3117 63.4135 74.7697 63.2992C74.4013 63.2215 74.0794 63.208 73.8037 63.2587C73.5288 63.306 73.3046 63.4057 73.1309 63.5578C72.9608 63.7106 72.8515 63.9017 72.8032 64.131C72.7559 64.3207 72.7607 64.4959 72.8175 64.6567C72.8778 64.8182 72.9751 64.9676 73.1095 65.1048C73.2446 65.2385 73.4066 65.3652 73.5955 65.4849C73.7851 65.6011 73.9908 65.7098 74.2126 65.8111L75.1233 66.2427C75.5669 66.4451 75.965 66.6743 76.3175 66.9301C76.67 67.1859 76.962 67.4707 77.1934 67.7844C77.4248 68.0982 77.5824 68.4435 77.6662 68.8205C77.7535 69.1982 77.752 69.6098 77.6617 70.0553C77.5204 70.7078 77.2342 71.239 76.8029 71.6489C76.3759 72.056 75.8253 72.3264 75.1511 72.46C74.4811 72.5909 73.7118 72.5647 72.8431 72.3815C71.9814 72.1998 71.2587 71.9094 70.6751 71.5105C70.0949 71.1123 69.6805 70.6166 69.4318 70.0234C69.1873 69.4274 69.1373 68.7437 69.2819 67.9721L71.4658 68.4327C71.4146 68.7957 71.4541 69.1162 71.5842 69.394C71.7185 69.6692 71.9257 69.8998 72.2059 70.0859C72.4902 70.2693 72.8269 70.402 73.2161 70.4841C73.5983 70.5647 73.9419 70.5791 74.2468 70.5272C74.5552 70.4762 74.8084 70.3681 75.0065 70.203C75.2047 70.0379 75.3309 69.8268 75.3851 69.5697C75.4357 69.3299 75.4069 69.1134 75.2989 68.92C75.1944 68.7274 75.0187 68.5452 74.7719 68.3733C74.5285 68.2022 74.2221 68.0287 73.8527 67.8528L72.752 67.3158C71.8982 66.9071 71.2599 66.415 70.8369 65.8394C70.4139 65.2639 70.2873 64.5821 70.4571 63.7941C70.59 63.147 70.8811 62.6187 71.3304 62.209C71.7832 61.8 72.344 61.5245 73.0127 61.3825C73.6814 61.2405 74.4049 61.2515 75.1833 61.4157C75.9755 61.5828 76.6384 61.8642 77.1719 62.2598C77.7089 62.6561 78.0915 63.1306 78.3197 63.6832C78.548 64.2358 78.6002 64.8311 78.4765 65.4692L76.3135 65.013ZM81.9335 74.141L84.1849 63.4668L91.2524 64.9575L90.86 66.8182L86.0493 65.8035L85.5128 68.347L89.8544 69.2627L89.462 71.1234L85.1203 70.2077L84.1903 74.617L81.9335 74.141ZM90.519 75.9519L92.7704 65.2777L96.9818 66.1659C97.7879 66.336 98.4455 66.6253 98.9545 67.0339C99.4677 67.4397 99.8184 67.9365 100.007 68.5242C100.199 69.1092 100.221 69.7543 100.072 70.4597C99.9224 71.1685 99.6409 71.7461 99.2274 72.1924C98.8146 72.6352 98.2895 72.9309 97.6521 73.0795C97.0181 73.2289 96.2911 73.2171 95.4711 73.0441L92.6514 72.4494L93.034 70.6356L95.4888 71.1534C95.9197 71.2443 96.29 71.2607 96.5999 71.2027C96.9097 71.1446 97.1591 71.0121 97.3479 70.8051C97.5402 70.5989 97.6733 70.3203 97.7474 69.9694C97.8221 69.615 97.8139 69.3011 97.7228 69.0278C97.6351 68.7553 97.4602 68.5261 97.1982 68.3401C96.9404 68.1515 96.5943 68.0114 96.16 67.9197L94.6381 67.5987L92.7758 76.4279L90.519 75.9519ZM97.3081 72.3102L98.9364 77.7273L96.4451 77.2018L94.8741 71.7968L97.3081 72.3102ZM100.151 77.9835L102.402 67.3092L109.595 68.8263L109.202 70.687L104.267 69.6459L103.73 72.1894L108.296 73.1524L107.903 75.0131L103.338 74.0501L102.8 76.5988L107.757 77.6443L107.364 79.505L100.151 77.9835ZM109.138 79.879L111.389 69.2048L118.582 70.7218L118.189 72.5825L113.253 71.5415L112.717 74.0849L117.283 75.048L116.89 76.9087L112.325 75.9456L111.787 78.4943L116.744 79.5398L116.351 81.4005L109.138 79.879Z" fill="#485261"/>
</g>
<defs>
<clipPath id="clip0_3631_949">
<rect width="118" height="110" fill="white" transform="translate(22.5493) rotate(11.8291)"/>
</clipPath>
</defs>
</svg>
