<svg xmlns="http://www.w3.org/2000/svg" viewBox="0 0 206.6 174.49"><defs><style>.cls-1{opacity:0.1;}.cls-2{fill:#182347;}</style></defs><g id="레이어_2" data-name="레이어 2"><g id="레이어_1-2" data-name="레이어 1"><g class="cls-1"><path class="cls-2" d="M0,129.24H12.45c0,3.13,2.42,4.66,5.17,4.66,2.53,0,4.94-1.35,4.94-3.74,0-2.75-3.41-3.55-7.58-4.56C8.65,124,.56,122.09.56,112.11c0-8.63,6.34-13.57,16.67-13.57,10.51,0,16.53,5.39,16.53,14.31H21.66c0-2.77-2.07-4.07-4.57-4.07-2.15,0-4.22.93-4.22,3,0,2.49,3.31,3.31,7.43,4.35,6.45,1.67,14.88,3.82,14.88,13.82,0,9.57-7.35,14.54-17.52,14.54C6.93,144.46,0,138.79,0,129.24Z"/><path class="cls-2" d="M75.26,132.92v10.47H46.7V99.57h28V110h-16v6.45H73.1v9.9H58.71v6.56Z"/><path class="cls-2" d="M115.21,132.34v11H87.38V99.57H99.61v32.77Z"/><path class="cls-2" d="M153.64,132.34v11H125.81V99.57H138v32.77Z"/><path class="cls-2" d="M190.89,136.27H175.36l-2.43,7.12H160l17.21-43.82H189l17.59,43.82H193.3Zm-7.79-23-4.8,13.58h9.64Z"/><path class="cls-2" d="M77.13,164.28,75.9,166a5.09,5.09,0,0,1-2.86-2.9A6.16,6.16,0,0,1,70,166.52l-1.35-1.76a5.52,5.52,0,0,0,3.24-5.28v-1.14h2.28v1.17A4.81,4.81,0,0,0,77.13,164.28Zm-5.33,2.78H83.26v4.45H74.15v1h9.68v1.86h-12v-4.57h9.12v-.92H71.8Zm3.88-6.72h2V158h2.23v8.43H77.65v-4.2h-2ZM81,157.73h2.22v8.72H81Z"/><path class="cls-2" d="M87.26,159.11h7.59v6.27H89.64v3.28a37.38,37.38,0,0,0,6.42-.48l.18,1.92a43.48,43.48,0,0,1-7.56.49H87.3v-7.07h5.26V161h-5.3Zm13.57,15.38H98.49v-8.83H95.78v-1.91h2.71v-6h2.34Z"/><path class="cls-2" d="M105.23,159.11H113v6.49h-5.39v3a38.94,38.94,0,0,0,6.68-.5l.2,1.88a41.12,41.12,0,0,1-7.8.57h-1.42v-6.84h5.39V161h-5.41ZM117.76,164h2.47V166h-2.47v8.52h-2.32V157.71h2.32Z"/><path class="cls-2" d="M131,160.34h3.13v-2.61h2.33v12.18h-2.33v-4.1H131v1.41h-7.95v-8.15H131Zm-5.69,8.41h2.38v3.53h9.12v1.88h-11.5Zm3.39-3.35v-4.47h-3.31v4.47Zm5.43-1.45v-1.71H131V164Z"/></g><g class="cls-1"><path class="cls-2" d="M104.05,0,69.57,19.91V59.72l34.48,19.91,34.48-19.91V19.91Zm15.61,31.46H108a3.58,3.58,0,0,0-2.43-3.58V17.72C114.55,18.32,119.66,23.4,119.66,31.46ZM102.55,17.69v9.93c-1.66.25-3,1.14-3,2.79,0,1.47,1.21,2.34,3,3V44l-1-.25c-6.11-1.52-13.91-3.39-13.91-13C87.62,22.76,93.28,18.06,102.55,17.69ZM87.08,47.28h12a4.21,4.21,0,0,0,3.46,4.3V61.92C93.1,61.39,87.08,56,87.08,47.28Zm18.47,14.65V51.6c1.83-.42,3.3-1.6,3.3-3.43s-1.32-2.6-3.3-3.3V34.32l1.12.28C112.89,36.21,121,38.29,121,47.94,121,56.72,114.61,61.47,105.55,61.93Z"/></g></g></g></svg>