<svg width="53" height="61" viewBox="0 0 53 61" fill="none" xmlns="http://www.w3.org/2000/svg">
<path d="M26.08 0L0 15.06V45.17L26.08 60.23L52.16 45.17V15.06L26.08 0ZM37.88 23.8H29.05C29.0794 23.2097 28.9157 22.6259 28.5837 22.137C28.2517 21.648 27.7695 21.2805 27.21 21.09V13.4C34 13.86 37.88 17.7 37.88 23.8ZM25 13.38V20.89C23.74 21.08 22.69 21.76 22.69 23C22.69 24.24 23.6 24.77 25 25.29V33.29L24.23 33.1C19.55 32 13.65 30.54 13.65 23.26C13.65 17.21 17.93 13.66 25 13.38ZM13.24 35.77H22.33C22.3101 36.54 22.5695 37.2912 23.0602 37.8849C23.551 38.4786 24.24 38.8747 25 39V46.8C17.8 46.43 13.24 42.38 13.24 35.77ZM27.24 46.84V39C27.8964 38.9266 28.5062 38.6251 28.9631 38.1481C29.4199 37.6712 29.6949 37.0489 29.74 36.39C29.74 35.13 28.74 34.39 27.24 33.9V26L28.09 26.22C32.77 27.39 38.92 29 38.92 36.26C38.92 42.9 34.07 46.5 27.21 46.84H27.24Z" fill="#182347"/>
</svg>
