<svg xmlns="http://www.w3.org/2000/svg" viewBox="0 0 278.61 60.23"><defs><style>.cls-1{fill:#fff;}</style></defs><g id="레이어_2" data-name="레이어 2"><g id="레이어_1-2" data-name="레이어 1"><path class="cls-1" d="M72,37.52H84.47c0,3.13,2.41,4.66,5.16,4.66,2.53,0,5-1.35,5-3.74,0-2.75-3.41-3.55-7.58-4.56-6.34-1.57-14.42-3.51-14.42-13.49,0-8.62,6.34-13.57,16.67-13.57,10.5,0,16.53,5.39,16.53,14.31H93.67c0-2.77-2.06-4.07-4.57-4.07-2.15,0-4.21.93-4.21,3,0,2.49,3.3,3.32,7.43,4.35,6.44,1.67,14.88,3.82,14.88,13.83,0,9.57-7.36,14.53-17.53,14.53C79,52.74,72,47.07,72,37.52Z"/><path class="cls-1" d="M147.28,41.2V51.67H118.71V7.86h28V18.29h-16v6.45h14.39v9.9H130.73V41.2Z"/><path class="cls-1" d="M187.22,40.62V51.67H159.4V7.86h12.23V40.62Z"/><path class="cls-1" d="M225.65,40.62V51.67H197.83V7.86h12.23V40.62Z"/><path class="cls-1" d="M262.9,44.56H247.37L245,51.67H232L249.22,7.86H261l17.59,43.81H265.32Zm-7.78-23-4.81,13.58H260Z"/><path class="cls-1" d="M26.08,0,0,15.06V45.17L26.08,60.23,52.16,45.17V15.06Zm11.8,23.8H29.05a2.72,2.72,0,0,0-1.84-2.71V13.4C34,13.86,37.88,17.7,37.88,23.8ZM25,13.38v7.51c-1.26.19-2.31.87-2.31,2.11s.91,1.77,2.31,2.29v8l-.77-.19C19.55,32,13.65,30.54,13.65,23.26,13.65,17.21,17.93,13.66,25,13.38ZM13.24,35.77h9.09A3.19,3.19,0,0,0,25,39v7.8C17.8,46.43,13.24,42.38,13.24,35.77Zm14,11.07V39a2.82,2.82,0,0,0,2.5-2.61c0-1.26-1-2-2.5-2.49V26l.85.22C32.77,27.39,38.92,29,38.92,36.26,38.92,42.9,34.07,46.5,27.21,46.84Z"/></g></g></svg>