<svg width="108" height="45" viewBox="0 0 108 45" fill="none" xmlns="http://www.w3.org/2000/svg">
<rect width="40" height="40" rx="8" fill="#017EFA"/>
<path d="M20 10C14.486 10 10 14.486 10 20C10 25.514 14.486 30 20 30C25.514 30 30 25.514 30 20C30 14.486 25.514 10 20 10ZM20 28C15.589 28 12 24.411 12 20C12 15.589 15.589 12 20 12C24.411 12 28 15.589 28 20C28 24.411 24.411 28 20 28Z" fill="white"/>
<path d="M21 14L15 21H19V26L25 19H21V14Z" fill="white"/>
<path d="M57.804 28H55.812V12.664H57.804V28ZM56.88 26.308H64.968V28H56.88V26.308ZM72.2385 28.288C70.3025 28.288 68.8305 27.756 67.8225 26.692C66.8145 25.62 66.3105 24.088 66.3105 22.096V18.556C66.3105 16.572 66.8145 15.048 67.8225 13.984C68.8305 12.912 70.3025 12.376 72.2385 12.376C74.1745 12.376 75.6465 12.912 76.6545 13.984C77.6625 15.048 78.1665 16.572 78.1665 18.556V22.096C78.1665 24.088 77.6625 25.62 76.6545 26.692C75.6465 27.756 74.1745 28.288 72.2385 28.288ZM72.2385 26.62C73.5345 26.62 74.5105 26.236 75.1665 25.468C75.8225 24.692 76.1505 23.596 76.1505 22.18V18.472C76.1505 17.056 75.8225 15.964 75.1665 15.196C74.5105 14.428 73.5345 14.044 72.2385 14.044C70.9505 14.044 69.9785 14.428 69.3225 15.196C68.6665 15.964 68.3385 17.056 68.3385 18.472V22.18C68.3385 23.596 68.6665 24.692 69.3225 25.468C69.9785 26.236 70.9505 26.62 72.2385 26.62ZM85.9577 28.288C84.7977 28.288 83.8257 28.056 83.0417 27.592C82.2577 27.12 81.6657 26.436 81.2657 25.54C80.8737 24.644 80.6777 23.56 80.6777 22.288V18.664C80.6777 16.648 81.1937 15.1 82.2257 14.02C83.2657 12.932 84.7897 12.388 86.7977 12.388C87.5177 12.388 88.1697 12.448 88.7537 12.568C89.3457 12.68 89.8697 12.832 90.3257 13.024C90.7817 13.208 91.1737 13.404 91.5017 13.612L91.6817 15.412C91.1297 15.06 90.4777 14.752 89.7257 14.488C88.9817 14.224 88.1177 14.092 87.1337 14.092C85.6457 14.092 84.5337 14.488 83.7977 15.28C83.0697 16.072 82.7057 17.212 82.7057 18.7V22.276C82.7057 23.652 83.0257 24.716 83.6657 25.468C84.3137 26.212 85.2817 26.584 86.5697 26.584C87.2257 26.584 87.7857 26.472 88.2497 26.248C88.7217 26.024 89.1057 25.728 89.4017 25.36C89.7057 24.992 89.9257 24.588 90.0617 24.148V20.368L90.3857 21.076H86.7737V19.42H92.0057V25.48L90.0497 25.468C89.9217 25.964 89.7017 26.428 89.3897 26.86C89.0777 27.292 88.6417 27.64 88.0817 27.904C87.5217 28.16 86.8137 28.288 85.9577 28.288ZM90.1457 24.832H92.0057V28H90.0617L90.1457 24.832ZM100.668 28.288C98.7322 28.288 97.2602 27.756 96.2522 26.692C95.2442 25.62 94.7402 24.088 94.7402 22.096V18.556C94.7402 16.572 95.2442 15.048 96.2522 13.984C97.2602 12.912 98.7322 12.376 100.668 12.376C102.604 12.376 104.076 12.912 105.084 13.984C106.092 15.048 106.596 16.572 106.596 18.556V22.096C106.596 24.088 106.092 25.62 105.084 26.692C104.076 27.756 102.604 28.288 100.668 28.288ZM100.668 26.62C101.964 26.62 102.94 26.236 103.596 25.468C104.252 24.692 104.58 23.596 104.58 22.18V18.472C104.58 17.056 104.252 15.964 103.596 15.196C102.94 14.428 101.964 14.044 100.668 14.044C99.3802 14.044 98.4082 14.428 97.7522 15.196C97.0962 15.964 96.7682 17.056 96.7682 18.472V22.18C96.7682 23.596 97.0962 24.692 97.7522 25.468C98.4082 26.236 99.3802 26.62 100.668 26.62Z" fill="white"/>
</svg>
